%TF.GenerationSoftware,KiCad,Pcbnew,(6.0.0)*%
%TF.CreationDate,2022-04-22T12:33:35-07:00*%
%TF.ProjectId,Garden-Soil-MoistureSensor,47617264-656e-42d5-936f-696c2d4d6f69,rev?*%
%TF.SameCoordinates,Original*%
%TF.FileFunction,Copper,L2,Bot*%
%TF.FilePolarity,Positive*%
%FSLAX46Y46*%
G04 Gerber Fmt 4.6, Leading zero omitted, Abs format (unit mm)*
G04 Created by KiCad (PCBNEW (6.0.0)) date 2022-04-22 12:33:35*
%MOMM*%
%LPD*%
G01*
G04 APERTURE LIST*
%TA.AperFunction,ComponentPad*%
%ADD10C,1.600000*%
%TD*%
%TA.AperFunction,ComponentPad*%
%ADD11O,1.600000X1.600000*%
%TD*%
%TA.AperFunction,ComponentPad*%
%ADD12R,1.700000X1.700000*%
%TD*%
%TA.AperFunction,ComponentPad*%
%ADD13O,1.700000X1.700000*%
%TD*%
%TA.AperFunction,ComponentPad*%
%ADD14C,1.980000*%
%TD*%
%TA.AperFunction,ComponentPad*%
%ADD15C,5.325000*%
%TD*%
%TA.AperFunction,ComponentPad*%
%ADD16C,3.585000*%
%TD*%
%TA.AperFunction,ViaPad*%
%ADD17C,0.800000*%
%TD*%
%TA.AperFunction,ViaPad*%
%ADD18C,3.873600*%
%TD*%
%TA.AperFunction,Conductor*%
%ADD19C,0.250000*%
%TD*%
G04 APERTURE END LIST*
D10*
%TO.P,R4,1*%
%TO.N,D7*%
X152742800Y-86023600D03*
D11*
%TO.P,R4,2*%
%TO.N,GND*%
X155282800Y-86023600D03*
%TD*%
D12*
%TO.P,J2,1,Pin_1*%
%TO.N,DO*%
X174225000Y-95110400D03*
D13*
%TO.P,J2,2,Pin_2*%
%TO.N,D1*%
X174225000Y-97650400D03*
%TO.P,J2,3,Pin_3*%
%TO.N,D2*%
X174225000Y-100190400D03*
%TO.P,J2,4,Pin_4*%
%TO.N,D3*%
X174225000Y-102730400D03*
%TO.P,J2,5,Pin_5*%
%TO.N,D4*%
X174225000Y-105270400D03*
%TO.P,J2,6,Pin_6*%
%TO.N,3V#1*%
X174225000Y-107810400D03*
%TO.P,J2,7,Pin_7*%
%TO.N,GND*%
X174225000Y-110350400D03*
%TO.P,J2,8,Pin_8*%
%TO.N,D5*%
X174225000Y-112890400D03*
%TO.P,J2,9,Pin_9*%
%TO.N,D6*%
X174225000Y-115430400D03*
%TO.P,J2,10,Pin_10*%
%TO.N,D7*%
X174225000Y-117970400D03*
%TO.P,J2,11,Pin_11*%
%TO.N,D8*%
X174225000Y-120510400D03*
%TO.P,J2,12,Pin_12*%
%TO.N,RX*%
X174225000Y-123050400D03*
%TO.P,J2,13,Pin_13*%
%TO.N,TX*%
X174225000Y-125590400D03*
%TO.P,J2,14,Pin_14*%
%TO.N,GND*%
X174225000Y-128130400D03*
%TO.P,J2,15,Pin_15*%
%TO.N,3V#2*%
X174225000Y-130670400D03*
%TD*%
D10*
%TO.P,R2,1*%
%TO.N,VIN*%
X152742800Y-75462000D03*
D11*
%TO.P,R2,2*%
%TO.N,Net-(IC1-Pad1)*%
X155282800Y-75462000D03*
%TD*%
D10*
%TO.P,R1,1*%
%TO.N,A0*%
X152742800Y-70181200D03*
D11*
%TO.P,R1,2*%
%TO.N,GND*%
X155282800Y-70181200D03*
%TD*%
D10*
%TO.P,R3,1*%
%TO.N,D7*%
X152742800Y-80742800D03*
D11*
%TO.P,R3,2*%
%TO.N,GND*%
X155282800Y-80742800D03*
%TD*%
D12*
%TO.P,J3,1,Pin_1*%
%TO.N,1B*%
X163892500Y-89346200D03*
D13*
%TO.P,J3,2,Pin_2*%
%TO.N,1A*%
X166432500Y-89346200D03*
%TO.P,J3,3,Pin_3*%
%TO.N,2B*%
X163892500Y-86806200D03*
%TO.P,J3,4,Pin_4*%
%TO.N,2A*%
X166432500Y-86806200D03*
%TO.P,J3,5,Pin_5*%
%TO.N,3B*%
X163892500Y-84266200D03*
%TO.P,J3,6,Pin_6*%
%TO.N,3A*%
X166432500Y-84266200D03*
%TO.P,J3,7,Pin_7*%
%TO.N,4B*%
X163892500Y-81726200D03*
%TO.P,J3,8,Pin_8*%
%TO.N,4A*%
X166432500Y-81726200D03*
%TO.P,J3,9,Pin_9*%
%TO.N,5B*%
X163892500Y-79186200D03*
%TO.P,J3,10,Pin_10*%
%TO.N,5A*%
X166432500Y-79186200D03*
%TO.P,J3,11,Pin_11*%
%TO.N,6B*%
X163892500Y-76646200D03*
%TO.P,J3,12,Pin_12*%
%TO.N,6A*%
X166432500Y-76646200D03*
%TO.P,J3,13,Pin_13*%
%TO.N,7B*%
X163892500Y-74106200D03*
%TO.P,J3,14,Pin_14*%
%TO.N,7A*%
X166432500Y-74106200D03*
%TO.P,J3,15,Pin_15*%
%TO.N,8B*%
X163892500Y-71566200D03*
%TO.P,J3,16,Pin_16*%
%TO.N,8A*%
X166432500Y-71566200D03*
%TO.P,J3,17,Pin_17*%
%TO.N,9B*%
X163892500Y-69026200D03*
%TO.P,J3,18,Pin_18*%
%TO.N,9A*%
X166432500Y-69026200D03*
%TO.P,J3,19,Pin_19*%
%TO.N,10B*%
X163892500Y-66486200D03*
%TO.P,J3,20,Pin_20*%
%TO.N,10A*%
X166432500Y-66486200D03*
%TO.P,J3,21,Pin_21*%
%TO.N,11B*%
X163892500Y-63946200D03*
%TO.P,J3,22,Pin_22*%
%TO.N,11A*%
X166432500Y-63946200D03*
%TO.P,J3,23,Pin_23*%
%TO.N,12B*%
X163892500Y-61406200D03*
%TO.P,J3,24,Pin_24*%
%TO.N,12A*%
X166432500Y-61406200D03*
%TO.P,J3,25,Pin_25*%
%TO.N,13B*%
X163892500Y-58866200D03*
%TO.P,J3,26,Pin_26*%
%TO.N,13A*%
X166432500Y-58866200D03*
%TO.P,J3,27,Pin_27*%
%TO.N,14B*%
X163892500Y-56326200D03*
%TO.P,J3,28,Pin_28*%
%TO.N,14A*%
X166432500Y-56326200D03*
%TO.P,J3,29,Pin_29*%
%TO.N,15B*%
X163892500Y-53786200D03*
%TO.P,J3,30,Pin_30*%
%TO.N,15A*%
X166432500Y-53786200D03*
%TD*%
D12*
%TO.P,J1,1,Pin_1*%
%TO.N,A0*%
X150730000Y-95110400D03*
D13*
%TO.P,J1,2,Pin_2*%
%TO.N,RSV1*%
X150730000Y-97650400D03*
%TO.P,J1,3,Pin_3*%
%TO.N,RSV2*%
X150730000Y-100190400D03*
%TO.P,J1,4,Pin_4*%
%TO.N,SD3*%
X150730000Y-102730400D03*
%TO.P,J1,5,Pin_5*%
%TO.N,SD2*%
X150730000Y-105270400D03*
%TO.P,J1,6,Pin_6*%
%TO.N,SD1*%
X150730000Y-107810400D03*
%TO.P,J1,7,Pin_7*%
%TO.N,CMD*%
X150730000Y-110350400D03*
%TO.P,J1,8,Pin_8*%
%TO.N,SDO*%
X150730000Y-112890400D03*
%TO.P,J1,9,Pin_9*%
%TO.N,CLK*%
X150730000Y-115430400D03*
%TO.P,J1,10,Pin_10*%
%TO.N,GND*%
X150730000Y-117970400D03*
%TO.P,J1,11,Pin_11*%
%TO.N,3V#3*%
X150730000Y-120510400D03*
%TO.P,J1,12,Pin_12*%
%TO.N,EN*%
X150730000Y-123050400D03*
%TO.P,J1,13,Pin_13*%
%TO.N,DO*%
X150730000Y-125590400D03*
%TO.P,J1,14,Pin_14*%
%TO.N,GND*%
X150730000Y-128130400D03*
%TO.P,J1,15,Pin_15*%
%TO.N,VIN*%
X150730000Y-130670400D03*
%TD*%
D14*
%TO.P,U1,1,+*%
%TO.N,VIN*%
X133696200Y-128533300D03*
%TO.P,U1,2,-*%
%TO.N,GND*%
X133696200Y-56333300D03*
D15*
%TO.P,U1,MH1,MH1*%
%TO.N,VIN*%
X141566200Y-119893300D03*
D16*
%TO.P,U1,MH2,MH2*%
%TO.N,GND*%
X141566200Y-56333300D03*
D15*
%TO.P,U1,MH3,MH3*%
X125826200Y-64693300D03*
%TD*%
D10*
%TO.P,C1,1*%
%TO.N,VIN*%
X151287800Y-65215500D03*
%TO.P,C1,2*%
%TO.N,GND*%
X156287800Y-65215500D03*
%TD*%
D17*
%TO.N,A0*%
X154513800Y-118928300D03*
X159432700Y-113821300D03*
X154095900Y-114333000D03*
D18*
%TO.N,GND*%
X180340000Y-49530000D03*
X117500400Y-49530000D03*
X180340000Y-134620000D03*
X117475000Y-134620000D03*
D17*
%TO.N,VIN*%
X168710000Y-113668900D03*
%TO.N,D1*%
X159559600Y-107465400D03*
%TO.N,D2*%
X164776900Y-106550200D03*
%TO.N,D4*%
X166109400Y-111376500D03*
%TO.N,D7*%
X155569800Y-110767500D03*
%TO.N,13B*%
X177249800Y-101473300D03*
X165816900Y-104733000D03*
%TO.N,12B*%
X165828100Y-103732600D03*
%TO.N,11B*%
X165804700Y-101854500D03*
%TO.N,10B*%
X165863300Y-99632400D03*
%TO.N,9B*%
X168076900Y-75288500D03*
%TO.N,8B*%
X166545975Y-94969124D03*
%TO.N,7A*%
X161695300Y-102889300D03*
%TO.N,6A*%
X162490100Y-93303600D03*
%TO.N,5A*%
X163025500Y-92424200D03*
%TO.N,4A*%
X163914200Y-91261200D03*
%TO.N,1A*%
X161056900Y-103665700D03*
%TD*%
D19*
%TO.N,A0*%
X159432700Y-114009400D02*
X154513800Y-118928300D01*
X154095900Y-99284300D02*
X154095900Y-114333000D01*
X150730000Y-95110400D02*
X150730000Y-96285700D01*
X150730000Y-96285700D02*
X151097300Y-96285700D01*
X151097300Y-96285700D02*
X154095900Y-99284300D01*
X159432700Y-113821300D02*
X159432700Y-114009400D01*
%TO.N,GND*%
X174225000Y-110350400D02*
X174225000Y-111525700D01*
X117500400Y-134594600D02*
X117475000Y-134620000D01*
X141566200Y-56333300D02*
X147405600Y-56333300D01*
X174225000Y-128424200D02*
X175400300Y-127248900D01*
X154157500Y-72431800D02*
X154157500Y-78492200D01*
X180340000Y-134620000D02*
X180340000Y-49530000D01*
X150225400Y-131872700D02*
X171215300Y-131872700D01*
X175400300Y-127248900D02*
X175400300Y-112333600D01*
X171215300Y-131872700D02*
X174225000Y-128863000D01*
X148415100Y-130062400D02*
X148415100Y-129270000D01*
X148415100Y-129270000D02*
X149554700Y-128130400D01*
X154157500Y-78492200D02*
X155282800Y-79617500D01*
X125826200Y-64693300D02*
X125826200Y-57855800D01*
X147405600Y-56333300D02*
X156287800Y-65215500D01*
X155282800Y-71306500D02*
X154157500Y-72431800D01*
X174225000Y-128863000D02*
X174225000Y-128718000D01*
X150730000Y-128130400D02*
X149554700Y-128130400D01*
X133696200Y-56333300D02*
X141566200Y-56333300D01*
X155282800Y-80742800D02*
X155282800Y-79617500D01*
X175400300Y-112333600D02*
X174592400Y-111525700D01*
X155282800Y-70181200D02*
X155282800Y-71306500D01*
X125826200Y-57855800D02*
X117500400Y-49530000D01*
X117500400Y-49530000D02*
X117500400Y-134594600D01*
X148415100Y-130062400D02*
X150225400Y-131872700D01*
X174592400Y-111525700D02*
X174225000Y-111525700D01*
X125826200Y-64693300D02*
X133696200Y-56823300D01*
%TO.N,DO*%
X151905300Y-120463100D02*
X154844300Y-117524100D01*
X151905300Y-123607200D02*
X151905300Y-120463100D01*
X151097400Y-124415100D02*
X151905300Y-123607200D01*
X154844300Y-110405300D02*
X159442300Y-105807300D01*
X164808500Y-101810500D02*
X171508600Y-95110400D01*
X150730000Y-125590400D02*
X150730000Y-124415100D01*
X164808500Y-102712600D02*
X164808500Y-101810500D01*
X150730000Y-124415100D02*
X151097400Y-124415100D01*
X161713800Y-105807300D02*
X164808500Y-102712600D01*
X154844300Y-117524100D02*
X154844300Y-110405300D01*
X159442300Y-105807300D02*
X161713800Y-105807300D01*
X171508600Y-95110400D02*
X174225000Y-95110400D01*
%TO.N,VIN*%
X141566200Y-123376800D02*
X138852700Y-123376800D01*
X145049800Y-126860400D02*
X141566200Y-123376800D01*
X151585400Y-126860400D02*
X145049800Y-126860400D01*
X151097400Y-129495100D02*
X151905300Y-128687200D01*
X155198600Y-127180300D02*
X168710000Y-113668900D01*
X150730000Y-130670400D02*
X150730000Y-129495100D01*
X150730000Y-129495100D02*
X151097400Y-129495100D01*
X138852700Y-123376800D02*
X133696200Y-128533300D01*
X151905300Y-127180300D02*
X155198600Y-127180300D01*
X151905300Y-128687200D02*
X151905300Y-127180300D01*
X141566200Y-123376800D02*
X141566200Y-119893300D01*
X151905300Y-127180300D02*
X151585400Y-126860400D01*
%TO.N,D1*%
X165150800Y-103007200D02*
X165787600Y-103007200D01*
X165787600Y-103007200D02*
X171144400Y-97650400D01*
X160692600Y-107465400D02*
X165150800Y-103007200D01*
X159559600Y-107465400D02*
X160692600Y-107465400D01*
X171144400Y-97650400D02*
X174225000Y-97650400D01*
%TO.N,D2*%
X164776900Y-106550200D02*
X166689900Y-106550200D01*
X166689900Y-106550200D02*
X173049700Y-100190400D01*
X174225000Y-100190400D02*
X173049700Y-100190400D01*
%TO.N,D4*%
X166943600Y-111376500D02*
X166109400Y-111376500D01*
X174225000Y-105270400D02*
X173049700Y-105270400D01*
X173049700Y-105270400D02*
X166943600Y-111376500D01*
%TO.N,D7*%
X173153300Y-116795100D02*
X174225000Y-116795100D01*
X157421500Y-112619200D02*
X168977400Y-112619200D01*
X174225000Y-117970400D02*
X174225000Y-116795100D01*
X168977400Y-112619200D02*
X173153300Y-116795100D01*
X155569800Y-110767500D02*
X157421500Y-112619200D01*
%TO.N,13B*%
X173581900Y-101473300D02*
X167730700Y-107324500D01*
X164019100Y-106255700D02*
X165541800Y-104733000D01*
X177249800Y-101473300D02*
X173581900Y-101473300D01*
X164019100Y-106865700D02*
X164019100Y-106255700D01*
X167730700Y-107324500D02*
X164477900Y-107324500D01*
X165541800Y-104733000D02*
X165816900Y-104733000D01*
X164477900Y-107324500D02*
X164019100Y-106865700D01*
%TO.N,12B*%
X165067800Y-61773600D02*
X165067800Y-61406200D01*
X165828100Y-103732600D02*
X170640300Y-98920400D01*
X175850800Y-71673700D02*
X166758600Y-62581500D01*
X174642100Y-98920400D02*
X175850800Y-97711700D01*
X170640300Y-98920400D02*
X174642100Y-98920400D01*
X175850800Y-97711700D02*
X175850800Y-71673700D01*
X163892500Y-61406200D02*
X165067800Y-61406200D01*
X166758600Y-62581500D02*
X165875700Y-62581500D01*
X165875700Y-62581500D02*
X165067800Y-61773600D01*
%TO.N,11B*%
X167647147Y-65121500D02*
X175400300Y-72874653D01*
X175400300Y-96095200D02*
X175209700Y-96285800D01*
X171373400Y-96285800D02*
X165804700Y-101854500D01*
X175209700Y-96285800D02*
X171373400Y-96285800D01*
X163892500Y-65121500D02*
X167647147Y-65121500D01*
X163892500Y-63946200D02*
X163892500Y-65121500D01*
X175400300Y-72874653D02*
X175400300Y-96095200D01*
%TO.N,10B*%
X165875700Y-67661500D02*
X166744300Y-67661500D01*
X168802200Y-92921000D02*
X168802200Y-96693500D01*
X168802200Y-69719400D02*
X168802200Y-91687200D01*
X168485700Y-92003700D02*
X168485700Y-92604500D01*
X165067800Y-66486200D02*
X165067800Y-66853600D01*
X166744300Y-67661500D02*
X168802200Y-69719400D01*
X168485700Y-92604500D02*
X168802200Y-92921000D01*
X165067800Y-66853600D02*
X165875700Y-67661500D01*
X168802200Y-96693500D02*
X165863300Y-99632400D01*
X163892500Y-66486200D02*
X165067800Y-66486200D01*
X168802200Y-91687200D02*
X168485700Y-92003700D01*
%TO.N,9B*%
X165875700Y-70201500D02*
X166749100Y-70201500D01*
X166749100Y-70201500D02*
X168076900Y-71529300D01*
X165067800Y-69026200D02*
X165067800Y-69393600D01*
X165067800Y-69393600D02*
X165875700Y-70201500D01*
X163892500Y-69026200D02*
X165067800Y-69026200D01*
X168076900Y-71529300D02*
X168076900Y-75288500D01*
%TO.N,8B*%
X159799200Y-76467500D02*
X163525200Y-72741500D01*
X166545975Y-94969124D02*
X164199300Y-97315799D01*
X164199300Y-97315799D02*
X164199300Y-102684900D01*
X159799200Y-104162200D02*
X159799200Y-76467500D01*
X160560100Y-104923100D02*
X159799200Y-104162200D01*
X164199300Y-102684900D02*
X161961100Y-104923100D01*
X163892500Y-72741500D02*
X163892500Y-71566200D01*
X163525200Y-72741500D02*
X163892500Y-72741500D01*
X161961100Y-104923100D02*
X160560100Y-104923100D01*
%TO.N,7A*%
X160764900Y-104429000D02*
X160293000Y-103957100D01*
X160293000Y-103358100D02*
X160761800Y-102889300D01*
X162870900Y-96981600D02*
X162870900Y-103376400D01*
X168115700Y-76597400D02*
X168115700Y-91736800D01*
X161818300Y-104429000D02*
X160764900Y-104429000D01*
X162870900Y-103376400D02*
X161818300Y-104429000D01*
X166799800Y-75281500D02*
X168115700Y-76597400D01*
X160293000Y-103957100D02*
X160293000Y-103358100D01*
X168115700Y-91736800D02*
X162870900Y-96981600D01*
X160761800Y-102889300D02*
X161695300Y-102889300D01*
X166432500Y-75281500D02*
X166799800Y-75281500D01*
X166432500Y-74106200D02*
X166432500Y-75281500D01*
%TO.N,6A*%
X162203100Y-79147500D02*
X162203100Y-93016600D01*
X164449300Y-77821500D02*
X163529100Y-77821500D01*
X166432500Y-76646200D02*
X165257200Y-76646200D01*
X165257200Y-76646200D02*
X165257200Y-77013600D01*
X162203100Y-93016600D02*
X162490100Y-93303600D01*
X165257200Y-77013600D02*
X164449300Y-77821500D01*
X163529100Y-77821500D02*
X162203100Y-79147500D01*
%TO.N,5A*%
X163025500Y-92424200D02*
X162686700Y-92085400D01*
X163577000Y-80361500D02*
X164449300Y-80361500D01*
X166432500Y-79186200D02*
X165257200Y-79186200D01*
X165257200Y-79553600D02*
X165257200Y-79186200D01*
X162686700Y-81251800D02*
X163577000Y-80361500D01*
X164449300Y-80361500D02*
X165257200Y-79553600D01*
X162686700Y-92085400D02*
X162686700Y-81251800D01*
%TO.N,4A*%
X166432500Y-81726200D02*
X166432500Y-82901500D01*
X165257100Y-86233200D02*
X165257100Y-90193600D01*
X166784800Y-82901500D02*
X167639200Y-83755900D01*
X167639200Y-84747400D02*
X166850400Y-85536200D01*
X166850400Y-85536200D02*
X165954100Y-85536200D01*
X166432500Y-82901500D02*
X166784800Y-82901500D01*
X165954100Y-85536200D02*
X165257100Y-86233200D01*
X167639200Y-83755900D02*
X167639200Y-84747400D01*
X164189500Y-91261200D02*
X163914200Y-91261200D01*
X165257100Y-90193600D02*
X164189500Y-91261200D01*
%TO.N,1A*%
X162420600Y-94533400D02*
X162420600Y-103189800D01*
X166432500Y-89346200D02*
X166432500Y-90521500D01*
X161944700Y-103665700D02*
X161056900Y-103665700D01*
X166432500Y-90521500D02*
X162420600Y-94533400D01*
X162420600Y-103189800D02*
X161944700Y-103665700D01*
%TD*%
M02*
