%TF.GenerationSoftware,KiCad,Pcbnew,(6.0.0)*%
%TF.CreationDate,2022-04-22T12:33:35-07:00*%
%TF.ProjectId,Garden-Soil-MoistureSensor,47617264-656e-42d5-936f-696c2d4d6f69,rev?*%
%TF.SameCoordinates,Original*%
%TF.FileFunction,Legend,Top*%
%TF.FilePolarity,Positive*%
%FSLAX46Y46*%
G04 Gerber Fmt 4.6, Leading zero omitted, Abs format (unit mm)*
G04 Created by KiCad (PCBNEW (6.0.0)) date 2022-04-22 12:33:35*
%MOMM*%
%LPD*%
G01*
G04 APERTURE LIST*
%ADD10C,0.150000*%
%ADD11C,0.254000*%
%ADD12C,0.120000*%
%ADD13C,0.100000*%
%ADD14C,0.200000*%
G04 APERTURE END LIST*
D10*
X155797893Y-59270961D02*
X155940750Y-59318580D01*
X156178845Y-59318580D01*
X156274083Y-59270961D01*
X156321702Y-59223342D01*
X156369321Y-59128104D01*
X156369321Y-59032866D01*
X156321702Y-58937628D01*
X156274083Y-58890009D01*
X156178845Y-58842390D01*
X155988369Y-58794771D01*
X155893131Y-58747152D01*
X155845512Y-58699533D01*
X155797893Y-58604295D01*
X155797893Y-58509057D01*
X155845512Y-58413819D01*
X155893131Y-58366200D01*
X155988369Y-58318580D01*
X156226464Y-58318580D01*
X156369321Y-58366200D01*
X157178845Y-59270961D02*
X157083607Y-59318580D01*
X156893131Y-59318580D01*
X156797893Y-59270961D01*
X156750274Y-59175723D01*
X156750274Y-58794771D01*
X156797893Y-58699533D01*
X156893131Y-58651914D01*
X157083607Y-58651914D01*
X157178845Y-58699533D01*
X157226464Y-58794771D01*
X157226464Y-58890009D01*
X156750274Y-58985247D01*
X157655035Y-58651914D02*
X157655035Y-59318580D01*
X157655035Y-58747152D02*
X157702654Y-58699533D01*
X157797893Y-58651914D01*
X157940750Y-58651914D01*
X158035988Y-58699533D01*
X158083607Y-58794771D01*
X158083607Y-59318580D01*
X158512178Y-59270961D02*
X158607416Y-59318580D01*
X158797893Y-59318580D01*
X158893131Y-59270961D01*
X158940750Y-59175723D01*
X158940750Y-59128104D01*
X158893131Y-59032866D01*
X158797893Y-58985247D01*
X158655035Y-58985247D01*
X158559797Y-58937628D01*
X158512178Y-58842390D01*
X158512178Y-58794771D01*
X158559797Y-58699533D01*
X158655035Y-58651914D01*
X158797893Y-58651914D01*
X158893131Y-58699533D01*
X159750274Y-59270961D02*
X159655035Y-59318580D01*
X159464559Y-59318580D01*
X159369321Y-59270961D01*
X159321702Y-59175723D01*
X159321702Y-58794771D01*
X159369321Y-58699533D01*
X159464559Y-58651914D01*
X159655035Y-58651914D01*
X159750274Y-58699533D01*
X159797893Y-58794771D01*
X159797893Y-58890009D01*
X159321702Y-58985247D01*
X160750274Y-59318580D02*
X160178845Y-59318580D01*
X160464559Y-59318580D02*
X160464559Y-58318580D01*
X160369321Y-58461438D01*
X160274083Y-58556676D01*
X160178845Y-58604295D01*
X161083607Y-58318580D02*
X161702654Y-58318580D01*
X161369321Y-58699533D01*
X161512178Y-58699533D01*
X161607416Y-58747152D01*
X161655035Y-58794771D01*
X161702654Y-58890009D01*
X161702654Y-59128104D01*
X161655035Y-59223342D01*
X161607416Y-59270961D01*
X161512178Y-59318580D01*
X161226464Y-59318580D01*
X161131226Y-59270961D01*
X161083607Y-59223342D01*
X131958104Y-136214671D02*
X132100961Y-136262290D01*
X132148580Y-136309909D01*
X132196200Y-136405147D01*
X132196200Y-136548004D01*
X132148580Y-136643242D01*
X132100961Y-136690861D01*
X132005723Y-136738480D01*
X131624771Y-136738480D01*
X131624771Y-135738480D01*
X131958104Y-135738480D01*
X132053342Y-135786100D01*
X132100961Y-135833719D01*
X132148580Y-135928957D01*
X132148580Y-136024195D01*
X132100961Y-136119433D01*
X132053342Y-136167052D01*
X131958104Y-136214671D01*
X131624771Y-136214671D01*
X132577152Y-136452766D02*
X133053342Y-136452766D01*
X132481914Y-136738480D02*
X132815247Y-135738480D01*
X133148580Y-136738480D01*
X133339057Y-135738480D02*
X133910485Y-135738480D01*
X133624771Y-136738480D02*
X133624771Y-135738480D01*
X135005723Y-136357528D02*
X135767628Y-136357528D01*
X135386676Y-136738480D02*
X135386676Y-135976576D01*
X155797893Y-54190961D02*
X155940750Y-54238580D01*
X156178845Y-54238580D01*
X156274083Y-54190961D01*
X156321702Y-54143342D01*
X156369321Y-54048104D01*
X156369321Y-53952866D01*
X156321702Y-53857628D01*
X156274083Y-53810009D01*
X156178845Y-53762390D01*
X155988369Y-53714771D01*
X155893131Y-53667152D01*
X155845512Y-53619533D01*
X155797893Y-53524295D01*
X155797893Y-53429057D01*
X155845512Y-53333819D01*
X155893131Y-53286200D01*
X155988369Y-53238580D01*
X156226464Y-53238580D01*
X156369321Y-53286200D01*
X157178845Y-54190961D02*
X157083607Y-54238580D01*
X156893131Y-54238580D01*
X156797893Y-54190961D01*
X156750274Y-54095723D01*
X156750274Y-53714771D01*
X156797893Y-53619533D01*
X156893131Y-53571914D01*
X157083607Y-53571914D01*
X157178845Y-53619533D01*
X157226464Y-53714771D01*
X157226464Y-53810009D01*
X156750274Y-53905247D01*
X157655035Y-53571914D02*
X157655035Y-54238580D01*
X157655035Y-53667152D02*
X157702654Y-53619533D01*
X157797893Y-53571914D01*
X157940750Y-53571914D01*
X158035988Y-53619533D01*
X158083607Y-53714771D01*
X158083607Y-54238580D01*
X158512178Y-54190961D02*
X158607416Y-54238580D01*
X158797893Y-54238580D01*
X158893131Y-54190961D01*
X158940750Y-54095723D01*
X158940750Y-54048104D01*
X158893131Y-53952866D01*
X158797893Y-53905247D01*
X158655035Y-53905247D01*
X158559797Y-53857628D01*
X158512178Y-53762390D01*
X158512178Y-53714771D01*
X158559797Y-53619533D01*
X158655035Y-53571914D01*
X158797893Y-53571914D01*
X158893131Y-53619533D01*
X159750274Y-54190961D02*
X159655035Y-54238580D01*
X159464559Y-54238580D01*
X159369321Y-54190961D01*
X159321702Y-54095723D01*
X159321702Y-53714771D01*
X159369321Y-53619533D01*
X159464559Y-53571914D01*
X159655035Y-53571914D01*
X159750274Y-53619533D01*
X159797893Y-53714771D01*
X159797893Y-53810009D01*
X159321702Y-53905247D01*
X160750274Y-54238580D02*
X160178845Y-54238580D01*
X160464559Y-54238580D02*
X160464559Y-53238580D01*
X160369321Y-53381438D01*
X160274083Y-53476676D01*
X160178845Y-53524295D01*
X161655035Y-53238580D02*
X161178845Y-53238580D01*
X161131226Y-53714771D01*
X161178845Y-53667152D01*
X161274083Y-53619533D01*
X161512178Y-53619533D01*
X161607416Y-53667152D01*
X161655035Y-53714771D01*
X161702654Y-53810009D01*
X161702654Y-54048104D01*
X161655035Y-54143342D01*
X161607416Y-54190961D01*
X161512178Y-54238580D01*
X161274083Y-54238580D01*
X161178845Y-54190961D01*
X161131226Y-54143342D01*
X131958104Y-50128493D02*
X132100961Y-50176112D01*
X132148580Y-50223731D01*
X132196200Y-50318969D01*
X132196200Y-50461826D01*
X132148580Y-50557064D01*
X132100961Y-50604683D01*
X132005723Y-50652302D01*
X131624771Y-50652302D01*
X131624771Y-49652302D01*
X131958104Y-49652302D01*
X132053342Y-49699922D01*
X132100961Y-49747541D01*
X132148580Y-49842779D01*
X132148580Y-49938017D01*
X132100961Y-50033255D01*
X132053342Y-50080874D01*
X131958104Y-50128493D01*
X131624771Y-50128493D01*
X132577152Y-50366588D02*
X133053342Y-50366588D01*
X132481914Y-50652302D02*
X132815247Y-49652302D01*
X133148580Y-50652302D01*
X133339057Y-49652302D02*
X133910485Y-49652302D01*
X133624771Y-50652302D02*
X133624771Y-49652302D01*
X135005723Y-50271350D02*
X135767628Y-50271350D01*
X127414924Y-47746020D02*
X127414924Y-46746020D01*
X127843495Y-47746020D02*
X127843495Y-47222211D01*
X127795876Y-47126973D01*
X127700638Y-47079354D01*
X127557781Y-47079354D01*
X127462543Y-47126973D01*
X127414924Y-47174592D01*
X128176829Y-47079354D02*
X128557781Y-47079354D01*
X128319686Y-46746020D02*
X128319686Y-47603163D01*
X128367305Y-47698401D01*
X128462543Y-47746020D01*
X128557781Y-47746020D01*
X128748257Y-47079354D02*
X129129209Y-47079354D01*
X128891114Y-46746020D02*
X128891114Y-47603163D01*
X128938733Y-47698401D01*
X129033971Y-47746020D01*
X129129209Y-47746020D01*
X129462543Y-47079354D02*
X129462543Y-48079354D01*
X129462543Y-47126973D02*
X129557781Y-47079354D01*
X129748257Y-47079354D01*
X129843495Y-47126973D01*
X129891114Y-47174592D01*
X129938733Y-47269830D01*
X129938733Y-47555544D01*
X129891114Y-47650782D01*
X129843495Y-47698401D01*
X129748257Y-47746020D01*
X129557781Y-47746020D01*
X129462543Y-47698401D01*
X130319686Y-47698401D02*
X130414924Y-47746020D01*
X130605400Y-47746020D01*
X130700638Y-47698401D01*
X130748257Y-47603163D01*
X130748257Y-47555544D01*
X130700638Y-47460306D01*
X130605400Y-47412687D01*
X130462543Y-47412687D01*
X130367305Y-47365068D01*
X130319686Y-47269830D01*
X130319686Y-47222211D01*
X130367305Y-47126973D01*
X130462543Y-47079354D01*
X130605400Y-47079354D01*
X130700638Y-47126973D01*
X131176829Y-47650782D02*
X131224448Y-47698401D01*
X131176829Y-47746020D01*
X131129209Y-47698401D01*
X131176829Y-47650782D01*
X131176829Y-47746020D01*
X131176829Y-47126973D02*
X131224448Y-47174592D01*
X131176829Y-47222211D01*
X131129209Y-47174592D01*
X131176829Y-47126973D01*
X131176829Y-47222211D01*
X132367305Y-46698401D02*
X131510162Y-47984116D01*
X133414924Y-46698401D02*
X132557781Y-47984116D01*
X134176829Y-47079354D02*
X134176829Y-47888878D01*
X134129209Y-47984116D01*
X134081590Y-48031735D01*
X133986352Y-48079354D01*
X133843495Y-48079354D01*
X133748257Y-48031735D01*
X134176829Y-47698401D02*
X134081590Y-47746020D01*
X133891114Y-47746020D01*
X133795876Y-47698401D01*
X133748257Y-47650782D01*
X133700638Y-47555544D01*
X133700638Y-47269830D01*
X133748257Y-47174592D01*
X133795876Y-47126973D01*
X133891114Y-47079354D01*
X134081590Y-47079354D01*
X134176829Y-47126973D01*
X134653019Y-47746020D02*
X134653019Y-47079354D01*
X134653019Y-46746020D02*
X134605400Y-46793640D01*
X134653019Y-46841259D01*
X134700638Y-46793640D01*
X134653019Y-46746020D01*
X134653019Y-46841259D01*
X134986352Y-47079354D02*
X135367305Y-47079354D01*
X135129209Y-46746020D02*
X135129209Y-47603163D01*
X135176829Y-47698401D01*
X135272067Y-47746020D01*
X135367305Y-47746020D01*
X135700638Y-47746020D02*
X135700638Y-46746020D01*
X136129209Y-47746020D02*
X136129209Y-47222211D01*
X136081590Y-47126973D01*
X135986352Y-47079354D01*
X135843495Y-47079354D01*
X135748257Y-47126973D01*
X135700638Y-47174592D01*
X137033971Y-47079354D02*
X137033971Y-47746020D01*
X136605400Y-47079354D02*
X136605400Y-47603163D01*
X136653019Y-47698401D01*
X136748257Y-47746020D01*
X136891114Y-47746020D01*
X136986352Y-47698401D01*
X137033971Y-47650782D01*
X137510162Y-47746020D02*
X137510162Y-46746020D01*
X137510162Y-47126973D02*
X137605400Y-47079354D01*
X137795876Y-47079354D01*
X137891114Y-47126973D01*
X137938733Y-47174592D01*
X137986352Y-47269830D01*
X137986352Y-47555544D01*
X137938733Y-47650782D01*
X137891114Y-47698401D01*
X137795876Y-47746020D01*
X137605400Y-47746020D01*
X137510162Y-47698401D01*
X138414924Y-47650782D02*
X138462543Y-47698401D01*
X138414924Y-47746020D01*
X138367305Y-47698401D01*
X138414924Y-47650782D01*
X138414924Y-47746020D01*
X139319686Y-47698401D02*
X139224448Y-47746020D01*
X139033971Y-47746020D01*
X138938733Y-47698401D01*
X138891114Y-47650782D01*
X138843495Y-47555544D01*
X138843495Y-47269830D01*
X138891114Y-47174592D01*
X138938733Y-47126973D01*
X139033971Y-47079354D01*
X139224448Y-47079354D01*
X139319686Y-47126973D01*
X139891114Y-47746020D02*
X139795876Y-47698401D01*
X139748257Y-47650782D01*
X139700638Y-47555544D01*
X139700638Y-47269830D01*
X139748257Y-47174592D01*
X139795876Y-47126973D01*
X139891114Y-47079354D01*
X140033971Y-47079354D01*
X140129209Y-47126973D01*
X140176829Y-47174592D01*
X140224448Y-47269830D01*
X140224448Y-47555544D01*
X140176829Y-47650782D01*
X140129209Y-47698401D01*
X140033971Y-47746020D01*
X139891114Y-47746020D01*
X140653019Y-47746020D02*
X140653019Y-47079354D01*
X140653019Y-47174592D02*
X140700638Y-47126973D01*
X140795876Y-47079354D01*
X140938733Y-47079354D01*
X141033971Y-47126973D01*
X141081590Y-47222211D01*
X141081590Y-47746020D01*
X141081590Y-47222211D02*
X141129209Y-47126973D01*
X141224448Y-47079354D01*
X141367305Y-47079354D01*
X141462543Y-47126973D01*
X141510162Y-47222211D01*
X141510162Y-47746020D01*
X142700638Y-46698401D02*
X141843495Y-47984116D01*
X142891114Y-46746020D02*
X143462543Y-46746020D01*
X143176829Y-47746020D02*
X143176829Y-46746020D01*
X144081590Y-46746020D02*
X144081590Y-47460306D01*
X144033971Y-47603163D01*
X143938733Y-47698401D01*
X143795876Y-47746020D01*
X143700638Y-47746020D01*
X145033971Y-47746020D02*
X144557781Y-47746020D01*
X144557781Y-46746020D01*
X145224448Y-46746020D02*
X145795876Y-46746020D01*
X145510162Y-47746020D02*
X145510162Y-46746020D01*
X146129209Y-47746020D02*
X146129209Y-46746020D01*
X146462543Y-47460306D01*
X146795876Y-46746020D01*
X146795876Y-47746020D01*
X147986352Y-46698401D02*
X147129209Y-47984116D01*
X148843495Y-46793640D02*
X148748257Y-46746020D01*
X148605400Y-46746020D01*
X148462543Y-46793640D01*
X148367305Y-46888878D01*
X148319686Y-46984116D01*
X148272067Y-47174592D01*
X148272067Y-47317449D01*
X148319686Y-47507925D01*
X148367305Y-47603163D01*
X148462543Y-47698401D01*
X148605400Y-47746020D01*
X148700638Y-47746020D01*
X148843495Y-47698401D01*
X148891114Y-47650782D01*
X148891114Y-47317449D01*
X148700638Y-47317449D01*
X149748257Y-47746020D02*
X149748257Y-47222211D01*
X149700638Y-47126973D01*
X149605400Y-47079354D01*
X149414924Y-47079354D01*
X149319686Y-47126973D01*
X149748257Y-47698401D02*
X149653019Y-47746020D01*
X149414924Y-47746020D01*
X149319686Y-47698401D01*
X149272067Y-47603163D01*
X149272067Y-47507925D01*
X149319686Y-47412687D01*
X149414924Y-47365068D01*
X149653019Y-47365068D01*
X149748257Y-47317449D01*
X150224448Y-47746020D02*
X150224448Y-47079354D01*
X150224448Y-47269830D02*
X150272067Y-47174592D01*
X150319686Y-47126973D01*
X150414924Y-47079354D01*
X150510162Y-47079354D01*
X151272067Y-47746020D02*
X151272067Y-46746020D01*
X151272067Y-47698401D02*
X151176829Y-47746020D01*
X150986352Y-47746020D01*
X150891114Y-47698401D01*
X150843495Y-47650782D01*
X150795876Y-47555544D01*
X150795876Y-47269830D01*
X150843495Y-47174592D01*
X150891114Y-47126973D01*
X150986352Y-47079354D01*
X151176829Y-47079354D01*
X151272067Y-47126973D01*
X152129209Y-47698401D02*
X152033971Y-47746020D01*
X151843495Y-47746020D01*
X151748257Y-47698401D01*
X151700638Y-47603163D01*
X151700638Y-47222211D01*
X151748257Y-47126973D01*
X151843495Y-47079354D01*
X152033971Y-47079354D01*
X152129209Y-47126973D01*
X152176829Y-47222211D01*
X152176829Y-47317449D01*
X151700638Y-47412687D01*
X152605400Y-47079354D02*
X152605400Y-47746020D01*
X152605400Y-47174592D02*
X152653019Y-47126973D01*
X152748257Y-47079354D01*
X152891114Y-47079354D01*
X152986352Y-47126973D01*
X153033971Y-47222211D01*
X153033971Y-47746020D01*
X153510162Y-47365068D02*
X154272067Y-47365068D01*
X154700638Y-47698401D02*
X154843495Y-47746020D01*
X155081590Y-47746020D01*
X155176829Y-47698401D01*
X155224448Y-47650782D01*
X155272067Y-47555544D01*
X155272067Y-47460306D01*
X155224448Y-47365068D01*
X155176829Y-47317449D01*
X155081590Y-47269830D01*
X154891114Y-47222211D01*
X154795876Y-47174592D01*
X154748257Y-47126973D01*
X154700638Y-47031735D01*
X154700638Y-46936497D01*
X154748257Y-46841259D01*
X154795876Y-46793640D01*
X154891114Y-46746020D01*
X155129209Y-46746020D01*
X155272067Y-46793640D01*
X155843495Y-47746020D02*
X155748257Y-47698401D01*
X155700638Y-47650782D01*
X155653019Y-47555544D01*
X155653019Y-47269830D01*
X155700638Y-47174592D01*
X155748257Y-47126973D01*
X155843495Y-47079354D01*
X155986352Y-47079354D01*
X156081590Y-47126973D01*
X156129209Y-47174592D01*
X156176829Y-47269830D01*
X156176829Y-47555544D01*
X156129209Y-47650782D01*
X156081590Y-47698401D01*
X155986352Y-47746020D01*
X155843495Y-47746020D01*
X156605400Y-47746020D02*
X156605400Y-47079354D01*
X156605400Y-46746020D02*
X156557781Y-46793640D01*
X156605400Y-46841259D01*
X156653019Y-46793640D01*
X156605400Y-46746020D01*
X156605400Y-46841259D01*
X157224448Y-47746020D02*
X157129209Y-47698401D01*
X157081590Y-47603163D01*
X157081590Y-46746020D01*
X157605400Y-47365068D02*
X158367305Y-47365068D01*
X158843495Y-47746020D02*
X158843495Y-46746020D01*
X159176829Y-47460306D01*
X159510162Y-46746020D01*
X159510162Y-47746020D01*
X160129209Y-47746020D02*
X160033971Y-47698401D01*
X159986352Y-47650782D01*
X159938733Y-47555544D01*
X159938733Y-47269830D01*
X159986352Y-47174592D01*
X160033971Y-47126973D01*
X160129209Y-47079354D01*
X160272067Y-47079354D01*
X160367305Y-47126973D01*
X160414924Y-47174592D01*
X160462543Y-47269830D01*
X160462543Y-47555544D01*
X160414924Y-47650782D01*
X160367305Y-47698401D01*
X160272067Y-47746020D01*
X160129209Y-47746020D01*
X160891114Y-47746020D02*
X160891114Y-47079354D01*
X160891114Y-46746020D02*
X160843495Y-46793640D01*
X160891114Y-46841259D01*
X160938733Y-46793640D01*
X160891114Y-46746020D01*
X160891114Y-46841259D01*
X161319686Y-47698401D02*
X161414924Y-47746020D01*
X161605400Y-47746020D01*
X161700638Y-47698401D01*
X161748257Y-47603163D01*
X161748257Y-47555544D01*
X161700638Y-47460306D01*
X161605400Y-47412687D01*
X161462543Y-47412687D01*
X161367305Y-47365068D01*
X161319686Y-47269830D01*
X161319686Y-47222211D01*
X161367305Y-47126973D01*
X161462543Y-47079354D01*
X161605400Y-47079354D01*
X161700638Y-47126973D01*
X162033971Y-47079354D02*
X162414924Y-47079354D01*
X162176829Y-46746020D02*
X162176829Y-47603163D01*
X162224448Y-47698401D01*
X162319686Y-47746020D01*
X162414924Y-47746020D01*
X163176829Y-47079354D02*
X163176829Y-47746020D01*
X162748257Y-47079354D02*
X162748257Y-47603163D01*
X162795876Y-47698401D01*
X162891114Y-47746020D01*
X163033971Y-47746020D01*
X163129209Y-47698401D01*
X163176829Y-47650782D01*
X163653019Y-47746020D02*
X163653019Y-47079354D01*
X163653019Y-47269830D02*
X163700638Y-47174592D01*
X163748257Y-47126973D01*
X163843495Y-47079354D01*
X163938733Y-47079354D01*
X164653019Y-47698401D02*
X164557781Y-47746020D01*
X164367305Y-47746020D01*
X164272067Y-47698401D01*
X164224448Y-47603163D01*
X164224448Y-47222211D01*
X164272067Y-47126973D01*
X164367305Y-47079354D01*
X164557781Y-47079354D01*
X164653019Y-47126973D01*
X164700638Y-47222211D01*
X164700638Y-47317449D01*
X164224448Y-47412687D01*
X165129209Y-47365068D02*
X165891114Y-47365068D01*
X166367305Y-47746020D02*
X166367305Y-46746020D01*
X166700638Y-47460306D01*
X167033971Y-46746020D01*
X167033971Y-47746020D01*
X167891114Y-47698401D02*
X167795876Y-47746020D01*
X167605400Y-47746020D01*
X167510162Y-47698401D01*
X167462543Y-47603163D01*
X167462543Y-47222211D01*
X167510162Y-47126973D01*
X167605400Y-47079354D01*
X167795876Y-47079354D01*
X167891114Y-47126973D01*
X167938733Y-47222211D01*
X167938733Y-47317449D01*
X167462543Y-47412687D01*
X168224448Y-47079354D02*
X168605400Y-47079354D01*
X168367305Y-46746020D02*
X168367305Y-47603163D01*
X168414924Y-47698401D01*
X168510162Y-47746020D01*
X168605400Y-47746020D01*
X169319686Y-47698401D02*
X169224448Y-47746020D01*
X169033971Y-47746020D01*
X168938733Y-47698401D01*
X168891114Y-47603163D01*
X168891114Y-47222211D01*
X168938733Y-47126973D01*
X169033971Y-47079354D01*
X169224448Y-47079354D01*
X169319686Y-47126973D01*
X169367305Y-47222211D01*
X169367305Y-47317449D01*
X168891114Y-47412687D01*
X169795876Y-47746020D02*
X169795876Y-47079354D01*
X169795876Y-47269830D02*
X169843495Y-47174592D01*
X169891114Y-47126973D01*
X169986352Y-47079354D01*
X170081590Y-47079354D01*
X177432376Y-82130961D02*
X177575233Y-82178580D01*
X177813328Y-82178580D01*
X177908567Y-82130961D01*
X177956186Y-82083342D01*
X178003805Y-81988104D01*
X178003805Y-81892866D01*
X177956186Y-81797628D01*
X177908567Y-81750009D01*
X177813328Y-81702390D01*
X177622852Y-81654771D01*
X177527614Y-81607152D01*
X177479995Y-81559533D01*
X177432376Y-81464295D01*
X177432376Y-81369057D01*
X177479995Y-81273819D01*
X177527614Y-81226200D01*
X177622852Y-81178580D01*
X177860947Y-81178580D01*
X178003805Y-81226200D01*
X178813328Y-82130961D02*
X178718090Y-82178580D01*
X178527614Y-82178580D01*
X178432376Y-82130961D01*
X178384757Y-82035723D01*
X178384757Y-81654771D01*
X178432376Y-81559533D01*
X178527614Y-81511914D01*
X178718090Y-81511914D01*
X178813328Y-81559533D01*
X178860947Y-81654771D01*
X178860947Y-81750009D01*
X178384757Y-81845247D01*
X179289519Y-81511914D02*
X179289519Y-82178580D01*
X179289519Y-81607152D02*
X179337138Y-81559533D01*
X179432376Y-81511914D01*
X179575233Y-81511914D01*
X179670471Y-81559533D01*
X179718090Y-81654771D01*
X179718090Y-82178580D01*
X180146662Y-82130961D02*
X180241900Y-82178580D01*
X180432376Y-82178580D01*
X180527614Y-82130961D01*
X180575233Y-82035723D01*
X180575233Y-81988104D01*
X180527614Y-81892866D01*
X180432376Y-81845247D01*
X180289519Y-81845247D01*
X180194281Y-81797628D01*
X180146662Y-81702390D01*
X180146662Y-81654771D01*
X180194281Y-81559533D01*
X180289519Y-81511914D01*
X180432376Y-81511914D01*
X180527614Y-81559533D01*
X181384757Y-82130961D02*
X181289519Y-82178580D01*
X181099043Y-82178580D01*
X181003805Y-82130961D01*
X180956186Y-82035723D01*
X180956186Y-81654771D01*
X181003805Y-81559533D01*
X181099043Y-81511914D01*
X181289519Y-81511914D01*
X181384757Y-81559533D01*
X181432376Y-81654771D01*
X181432376Y-81750009D01*
X180956186Y-81845247D01*
X182289519Y-81511914D02*
X182289519Y-82178580D01*
X182051424Y-81130961D02*
X181813328Y-81845247D01*
X182432376Y-81845247D01*
X141427341Y-49488558D02*
X140855912Y-49488558D01*
X141141626Y-49488558D02*
X141141626Y-48488558D01*
X141046388Y-48631416D01*
X140951150Y-48726654D01*
X140855912Y-48774273D01*
X142332102Y-48488558D02*
X141855912Y-48488558D01*
X141808293Y-48964749D01*
X141855912Y-48917130D01*
X141951150Y-48869511D01*
X142189245Y-48869511D01*
X142284483Y-48917130D01*
X142332102Y-48964749D01*
X142379721Y-49059987D01*
X142379721Y-49298082D01*
X142332102Y-49393320D01*
X142284483Y-49440939D01*
X142189245Y-49488558D01*
X141951150Y-49488558D01*
X141855912Y-49440939D01*
X141808293Y-49393320D01*
X143522579Y-49440939D02*
X143665436Y-49488558D01*
X143903531Y-49488558D01*
X143998769Y-49440939D01*
X144046388Y-49393320D01*
X144094007Y-49298082D01*
X144094007Y-49202844D01*
X144046388Y-49107606D01*
X143998769Y-49059987D01*
X143903531Y-49012368D01*
X143713055Y-48964749D01*
X143617817Y-48917130D01*
X143570198Y-48869511D01*
X143522579Y-48774273D01*
X143522579Y-48679035D01*
X143570198Y-48583797D01*
X143617817Y-48536178D01*
X143713055Y-48488558D01*
X143951150Y-48488558D01*
X144094007Y-48536178D01*
X144379721Y-48821892D02*
X144760674Y-48821892D01*
X144522579Y-48488558D02*
X144522579Y-49345701D01*
X144570198Y-49440939D01*
X144665436Y-49488558D01*
X144760674Y-49488558D01*
X145522579Y-49488558D02*
X145522579Y-48964749D01*
X145474960Y-48869511D01*
X145379721Y-48821892D01*
X145189245Y-48821892D01*
X145094007Y-48869511D01*
X145522579Y-49440939D02*
X145427341Y-49488558D01*
X145189245Y-49488558D01*
X145094007Y-49440939D01*
X145046388Y-49345701D01*
X145046388Y-49250463D01*
X145094007Y-49155225D01*
X145189245Y-49107606D01*
X145427341Y-49107606D01*
X145522579Y-49059987D01*
X145855912Y-48821892D02*
X146236864Y-48821892D01*
X145998769Y-48488558D02*
X145998769Y-49345701D01*
X146046388Y-49440939D01*
X146141626Y-49488558D01*
X146236864Y-49488558D01*
X146570198Y-49488558D02*
X146570198Y-48821892D01*
X146570198Y-48488558D02*
X146522579Y-48536178D01*
X146570198Y-48583797D01*
X146617817Y-48536178D01*
X146570198Y-48488558D01*
X146570198Y-48583797D01*
X147189245Y-49488558D02*
X147094007Y-49440939D01*
X147046388Y-49393320D01*
X146998769Y-49298082D01*
X146998769Y-49012368D01*
X147046388Y-48917130D01*
X147094007Y-48869511D01*
X147189245Y-48821892D01*
X147332102Y-48821892D01*
X147427341Y-48869511D01*
X147474960Y-48917130D01*
X147522579Y-49012368D01*
X147522579Y-49298082D01*
X147474960Y-49393320D01*
X147427341Y-49440939D01*
X147332102Y-49488558D01*
X147189245Y-49488558D01*
X147951150Y-48821892D02*
X147951150Y-49488558D01*
X147951150Y-48917130D02*
X147998769Y-48869511D01*
X148094007Y-48821892D01*
X148236864Y-48821892D01*
X148332102Y-48869511D01*
X148379721Y-48964749D01*
X148379721Y-49488558D01*
X149570198Y-49440939D02*
X149713055Y-49488558D01*
X149951150Y-49488558D01*
X150046388Y-49440939D01*
X150094007Y-49393320D01*
X150141626Y-49298082D01*
X150141626Y-49202844D01*
X150094007Y-49107606D01*
X150046388Y-49059987D01*
X149951150Y-49012368D01*
X149760674Y-48964749D01*
X149665436Y-48917130D01*
X149617817Y-48869511D01*
X149570198Y-48774273D01*
X149570198Y-48679035D01*
X149617817Y-48583797D01*
X149665436Y-48536178D01*
X149760674Y-48488558D01*
X149998769Y-48488558D01*
X150141626Y-48536178D01*
X150713055Y-49488558D02*
X150617817Y-49440939D01*
X150570198Y-49393320D01*
X150522579Y-49298082D01*
X150522579Y-49012368D01*
X150570198Y-48917130D01*
X150617817Y-48869511D01*
X150713055Y-48821892D01*
X150855912Y-48821892D01*
X150951150Y-48869511D01*
X150998769Y-48917130D01*
X151046388Y-49012368D01*
X151046388Y-49298082D01*
X150998769Y-49393320D01*
X150951150Y-49440939D01*
X150855912Y-49488558D01*
X150713055Y-49488558D01*
X151474960Y-49488558D02*
X151474960Y-48821892D01*
X151474960Y-48488558D02*
X151427341Y-48536178D01*
X151474960Y-48583797D01*
X151522579Y-48536178D01*
X151474960Y-48488558D01*
X151474960Y-48583797D01*
X152094007Y-49488558D02*
X151998769Y-49440939D01*
X151951150Y-49345701D01*
X151951150Y-48488558D01*
X153236864Y-49488558D02*
X153236864Y-48488558D01*
X153570198Y-49202844D01*
X153903531Y-48488558D01*
X153903531Y-49488558D01*
X154522579Y-49488558D02*
X154427341Y-49440939D01*
X154379721Y-49393320D01*
X154332102Y-49298082D01*
X154332102Y-49012368D01*
X154379721Y-48917130D01*
X154427341Y-48869511D01*
X154522579Y-48821892D01*
X154665436Y-48821892D01*
X154760674Y-48869511D01*
X154808293Y-48917130D01*
X154855912Y-49012368D01*
X154855912Y-49298082D01*
X154808293Y-49393320D01*
X154760674Y-49440939D01*
X154665436Y-49488558D01*
X154522579Y-49488558D01*
X155284483Y-49488558D02*
X155284483Y-48821892D01*
X155284483Y-48488558D02*
X155236864Y-48536178D01*
X155284483Y-48583797D01*
X155332102Y-48536178D01*
X155284483Y-48488558D01*
X155284483Y-48583797D01*
X155713055Y-49440939D02*
X155808293Y-49488558D01*
X155998769Y-49488558D01*
X156094007Y-49440939D01*
X156141626Y-49345701D01*
X156141626Y-49298082D01*
X156094007Y-49202844D01*
X155998769Y-49155225D01*
X155855912Y-49155225D01*
X155760674Y-49107606D01*
X155713055Y-49012368D01*
X155713055Y-48964749D01*
X155760674Y-48869511D01*
X155855912Y-48821892D01*
X155998769Y-48821892D01*
X156094007Y-48869511D01*
X156427341Y-48821892D02*
X156808293Y-48821892D01*
X156570198Y-48488558D02*
X156570198Y-49345701D01*
X156617817Y-49440939D01*
X156713055Y-49488558D01*
X156808293Y-49488558D01*
X157570198Y-48821892D02*
X157570198Y-49488558D01*
X157141626Y-48821892D02*
X157141626Y-49345701D01*
X157189245Y-49440939D01*
X157284483Y-49488558D01*
X157427341Y-49488558D01*
X157522579Y-49440939D01*
X157570198Y-49393320D01*
X158046388Y-49488558D02*
X158046388Y-48821892D01*
X158046388Y-49012368D02*
X158094007Y-48917130D01*
X158141626Y-48869511D01*
X158236864Y-48821892D01*
X158332102Y-48821892D01*
X159046388Y-49440939D02*
X158951150Y-49488558D01*
X158760674Y-49488558D01*
X158665436Y-49440939D01*
X158617817Y-49345701D01*
X158617817Y-48964749D01*
X158665436Y-48869511D01*
X158760674Y-48821892D01*
X158951150Y-48821892D01*
X159046388Y-48869511D01*
X159094007Y-48964749D01*
X159094007Y-49059987D01*
X158617817Y-49155225D01*
X160284483Y-49488558D02*
X160284483Y-48488558D01*
X160617817Y-49202844D01*
X160951150Y-48488558D01*
X160951150Y-49488558D01*
X161808293Y-49440939D02*
X161713055Y-49488558D01*
X161522579Y-49488558D01*
X161427341Y-49440939D01*
X161379721Y-49345701D01*
X161379721Y-48964749D01*
X161427341Y-48869511D01*
X161522579Y-48821892D01*
X161713055Y-48821892D01*
X161808293Y-48869511D01*
X161855912Y-48964749D01*
X161855912Y-49059987D01*
X161379721Y-49155225D01*
X162141626Y-48821892D02*
X162522579Y-48821892D01*
X162284483Y-48488558D02*
X162284483Y-49345701D01*
X162332102Y-49440939D01*
X162427341Y-49488558D01*
X162522579Y-49488558D01*
X163236864Y-49440939D02*
X163141626Y-49488558D01*
X162951150Y-49488558D01*
X162855912Y-49440939D01*
X162808293Y-49345701D01*
X162808293Y-48964749D01*
X162855912Y-48869511D01*
X162951150Y-48821892D01*
X163141626Y-48821892D01*
X163236864Y-48869511D01*
X163284483Y-48964749D01*
X163284483Y-49059987D01*
X162808293Y-49155225D01*
X163713055Y-49488558D02*
X163713055Y-48821892D01*
X163713055Y-49012368D02*
X163760674Y-48917130D01*
X163808293Y-48869511D01*
X163903531Y-48821892D01*
X163998769Y-48821892D01*
X155797893Y-56730961D02*
X155940750Y-56778580D01*
X156178845Y-56778580D01*
X156274083Y-56730961D01*
X156321702Y-56683342D01*
X156369321Y-56588104D01*
X156369321Y-56492866D01*
X156321702Y-56397628D01*
X156274083Y-56350009D01*
X156178845Y-56302390D01*
X155988369Y-56254771D01*
X155893131Y-56207152D01*
X155845512Y-56159533D01*
X155797893Y-56064295D01*
X155797893Y-55969057D01*
X155845512Y-55873819D01*
X155893131Y-55826200D01*
X155988369Y-55778580D01*
X156226464Y-55778580D01*
X156369321Y-55826200D01*
X157178845Y-56730961D02*
X157083607Y-56778580D01*
X156893131Y-56778580D01*
X156797893Y-56730961D01*
X156750274Y-56635723D01*
X156750274Y-56254771D01*
X156797893Y-56159533D01*
X156893131Y-56111914D01*
X157083607Y-56111914D01*
X157178845Y-56159533D01*
X157226464Y-56254771D01*
X157226464Y-56350009D01*
X156750274Y-56445247D01*
X157655035Y-56111914D02*
X157655035Y-56778580D01*
X157655035Y-56207152D02*
X157702654Y-56159533D01*
X157797893Y-56111914D01*
X157940750Y-56111914D01*
X158035988Y-56159533D01*
X158083607Y-56254771D01*
X158083607Y-56778580D01*
X158512178Y-56730961D02*
X158607416Y-56778580D01*
X158797893Y-56778580D01*
X158893131Y-56730961D01*
X158940750Y-56635723D01*
X158940750Y-56588104D01*
X158893131Y-56492866D01*
X158797893Y-56445247D01*
X158655035Y-56445247D01*
X158559797Y-56397628D01*
X158512178Y-56302390D01*
X158512178Y-56254771D01*
X158559797Y-56159533D01*
X158655035Y-56111914D01*
X158797893Y-56111914D01*
X158893131Y-56159533D01*
X159750274Y-56730961D02*
X159655035Y-56778580D01*
X159464559Y-56778580D01*
X159369321Y-56730961D01*
X159321702Y-56635723D01*
X159321702Y-56254771D01*
X159369321Y-56159533D01*
X159464559Y-56111914D01*
X159655035Y-56111914D01*
X159750274Y-56159533D01*
X159797893Y-56254771D01*
X159797893Y-56350009D01*
X159321702Y-56445247D01*
X160750274Y-56778580D02*
X160178845Y-56778580D01*
X160464559Y-56778580D02*
X160464559Y-55778580D01*
X160369321Y-55921438D01*
X160274083Y-56016676D01*
X160178845Y-56064295D01*
X161607416Y-56111914D02*
X161607416Y-56778580D01*
X161369321Y-55730961D02*
X161131226Y-56445247D01*
X161750274Y-56445247D01*
X155797893Y-61810961D02*
X155940750Y-61858580D01*
X156178845Y-61858580D01*
X156274083Y-61810961D01*
X156321702Y-61763342D01*
X156369321Y-61668104D01*
X156369321Y-61572866D01*
X156321702Y-61477628D01*
X156274083Y-61430009D01*
X156178845Y-61382390D01*
X155988369Y-61334771D01*
X155893131Y-61287152D01*
X155845512Y-61239533D01*
X155797893Y-61144295D01*
X155797893Y-61049057D01*
X155845512Y-60953819D01*
X155893131Y-60906200D01*
X155988369Y-60858580D01*
X156226464Y-60858580D01*
X156369321Y-60906200D01*
X157178845Y-61810961D02*
X157083607Y-61858580D01*
X156893131Y-61858580D01*
X156797893Y-61810961D01*
X156750274Y-61715723D01*
X156750274Y-61334771D01*
X156797893Y-61239533D01*
X156893131Y-61191914D01*
X157083607Y-61191914D01*
X157178845Y-61239533D01*
X157226464Y-61334771D01*
X157226464Y-61430009D01*
X156750274Y-61525247D01*
X157655035Y-61191914D02*
X157655035Y-61858580D01*
X157655035Y-61287152D02*
X157702654Y-61239533D01*
X157797893Y-61191914D01*
X157940750Y-61191914D01*
X158035988Y-61239533D01*
X158083607Y-61334771D01*
X158083607Y-61858580D01*
X158512178Y-61810961D02*
X158607416Y-61858580D01*
X158797893Y-61858580D01*
X158893131Y-61810961D01*
X158940750Y-61715723D01*
X158940750Y-61668104D01*
X158893131Y-61572866D01*
X158797893Y-61525247D01*
X158655035Y-61525247D01*
X158559797Y-61477628D01*
X158512178Y-61382390D01*
X158512178Y-61334771D01*
X158559797Y-61239533D01*
X158655035Y-61191914D01*
X158797893Y-61191914D01*
X158893131Y-61239533D01*
X159750274Y-61810961D02*
X159655035Y-61858580D01*
X159464559Y-61858580D01*
X159369321Y-61810961D01*
X159321702Y-61715723D01*
X159321702Y-61334771D01*
X159369321Y-61239533D01*
X159464559Y-61191914D01*
X159655035Y-61191914D01*
X159750274Y-61239533D01*
X159797893Y-61334771D01*
X159797893Y-61430009D01*
X159321702Y-61525247D01*
X160750274Y-61858580D02*
X160178845Y-61858580D01*
X160464559Y-61858580D02*
X160464559Y-60858580D01*
X160369321Y-61001438D01*
X160274083Y-61096676D01*
X160178845Y-61144295D01*
X161131226Y-60953819D02*
X161178845Y-60906200D01*
X161274083Y-60858580D01*
X161512178Y-60858580D01*
X161607416Y-60906200D01*
X161655035Y-60953819D01*
X161702654Y-61049057D01*
X161702654Y-61144295D01*
X161655035Y-61287152D01*
X161083607Y-61858580D01*
X161702654Y-61858580D01*
X177432376Y-87210961D02*
X177575233Y-87258580D01*
X177813328Y-87258580D01*
X177908567Y-87210961D01*
X177956186Y-87163342D01*
X178003805Y-87068104D01*
X178003805Y-86972866D01*
X177956186Y-86877628D01*
X177908567Y-86830009D01*
X177813328Y-86782390D01*
X177622852Y-86734771D01*
X177527614Y-86687152D01*
X177479995Y-86639533D01*
X177432376Y-86544295D01*
X177432376Y-86449057D01*
X177479995Y-86353819D01*
X177527614Y-86306200D01*
X177622852Y-86258580D01*
X177860947Y-86258580D01*
X178003805Y-86306200D01*
X178813328Y-87210961D02*
X178718090Y-87258580D01*
X178527614Y-87258580D01*
X178432376Y-87210961D01*
X178384757Y-87115723D01*
X178384757Y-86734771D01*
X178432376Y-86639533D01*
X178527614Y-86591914D01*
X178718090Y-86591914D01*
X178813328Y-86639533D01*
X178860947Y-86734771D01*
X178860947Y-86830009D01*
X178384757Y-86925247D01*
X179289519Y-86591914D02*
X179289519Y-87258580D01*
X179289519Y-86687152D02*
X179337138Y-86639533D01*
X179432376Y-86591914D01*
X179575233Y-86591914D01*
X179670471Y-86639533D01*
X179718090Y-86734771D01*
X179718090Y-87258580D01*
X180146662Y-87210961D02*
X180241900Y-87258580D01*
X180432376Y-87258580D01*
X180527614Y-87210961D01*
X180575233Y-87115723D01*
X180575233Y-87068104D01*
X180527614Y-86972866D01*
X180432376Y-86925247D01*
X180289519Y-86925247D01*
X180194281Y-86877628D01*
X180146662Y-86782390D01*
X180146662Y-86734771D01*
X180194281Y-86639533D01*
X180289519Y-86591914D01*
X180432376Y-86591914D01*
X180527614Y-86639533D01*
X181384757Y-87210961D02*
X181289519Y-87258580D01*
X181099043Y-87258580D01*
X181003805Y-87210961D01*
X180956186Y-87115723D01*
X180956186Y-86734771D01*
X181003805Y-86639533D01*
X181099043Y-86591914D01*
X181289519Y-86591914D01*
X181384757Y-86639533D01*
X181432376Y-86734771D01*
X181432376Y-86830009D01*
X180956186Y-86925247D01*
X181813328Y-86353819D02*
X181860947Y-86306200D01*
X181956186Y-86258580D01*
X182194281Y-86258580D01*
X182289519Y-86306200D01*
X182337138Y-86353819D01*
X182384757Y-86449057D01*
X182384757Y-86544295D01*
X182337138Y-86687152D01*
X181765709Y-87258580D01*
X182384757Y-87258580D01*
X177432376Y-84670961D02*
X177575233Y-84718580D01*
X177813328Y-84718580D01*
X177908567Y-84670961D01*
X177956186Y-84623342D01*
X178003805Y-84528104D01*
X178003805Y-84432866D01*
X177956186Y-84337628D01*
X177908567Y-84290009D01*
X177813328Y-84242390D01*
X177622852Y-84194771D01*
X177527614Y-84147152D01*
X177479995Y-84099533D01*
X177432376Y-84004295D01*
X177432376Y-83909057D01*
X177479995Y-83813819D01*
X177527614Y-83766200D01*
X177622852Y-83718580D01*
X177860947Y-83718580D01*
X178003805Y-83766200D01*
X178813328Y-84670961D02*
X178718090Y-84718580D01*
X178527614Y-84718580D01*
X178432376Y-84670961D01*
X178384757Y-84575723D01*
X178384757Y-84194771D01*
X178432376Y-84099533D01*
X178527614Y-84051914D01*
X178718090Y-84051914D01*
X178813328Y-84099533D01*
X178860947Y-84194771D01*
X178860947Y-84290009D01*
X178384757Y-84385247D01*
X179289519Y-84051914D02*
X179289519Y-84718580D01*
X179289519Y-84147152D02*
X179337138Y-84099533D01*
X179432376Y-84051914D01*
X179575233Y-84051914D01*
X179670471Y-84099533D01*
X179718090Y-84194771D01*
X179718090Y-84718580D01*
X180146662Y-84670961D02*
X180241900Y-84718580D01*
X180432376Y-84718580D01*
X180527614Y-84670961D01*
X180575233Y-84575723D01*
X180575233Y-84528104D01*
X180527614Y-84432866D01*
X180432376Y-84385247D01*
X180289519Y-84385247D01*
X180194281Y-84337628D01*
X180146662Y-84242390D01*
X180146662Y-84194771D01*
X180194281Y-84099533D01*
X180289519Y-84051914D01*
X180432376Y-84051914D01*
X180527614Y-84099533D01*
X181384757Y-84670961D02*
X181289519Y-84718580D01*
X181099043Y-84718580D01*
X181003805Y-84670961D01*
X180956186Y-84575723D01*
X180956186Y-84194771D01*
X181003805Y-84099533D01*
X181099043Y-84051914D01*
X181289519Y-84051914D01*
X181384757Y-84099533D01*
X181432376Y-84194771D01*
X181432376Y-84290009D01*
X180956186Y-84385247D01*
X181765709Y-83718580D02*
X182384757Y-83718580D01*
X182051424Y-84099533D01*
X182194281Y-84099533D01*
X182289519Y-84147152D01*
X182337138Y-84194771D01*
X182384757Y-84290009D01*
X182384757Y-84528104D01*
X182337138Y-84623342D01*
X182289519Y-84670961D01*
X182194281Y-84718580D01*
X181908567Y-84718580D01*
X181813328Y-84670961D01*
X181765709Y-84623342D01*
X177432376Y-89750961D02*
X177575233Y-89798580D01*
X177813328Y-89798580D01*
X177908567Y-89750961D01*
X177956186Y-89703342D01*
X178003805Y-89608104D01*
X178003805Y-89512866D01*
X177956186Y-89417628D01*
X177908567Y-89370009D01*
X177813328Y-89322390D01*
X177622852Y-89274771D01*
X177527614Y-89227152D01*
X177479995Y-89179533D01*
X177432376Y-89084295D01*
X177432376Y-88989057D01*
X177479995Y-88893819D01*
X177527614Y-88846200D01*
X177622852Y-88798580D01*
X177860947Y-88798580D01*
X178003805Y-88846200D01*
X178813328Y-89750961D02*
X178718090Y-89798580D01*
X178527614Y-89798580D01*
X178432376Y-89750961D01*
X178384757Y-89655723D01*
X178384757Y-89274771D01*
X178432376Y-89179533D01*
X178527614Y-89131914D01*
X178718090Y-89131914D01*
X178813328Y-89179533D01*
X178860947Y-89274771D01*
X178860947Y-89370009D01*
X178384757Y-89465247D01*
X179289519Y-89131914D02*
X179289519Y-89798580D01*
X179289519Y-89227152D02*
X179337138Y-89179533D01*
X179432376Y-89131914D01*
X179575233Y-89131914D01*
X179670471Y-89179533D01*
X179718090Y-89274771D01*
X179718090Y-89798580D01*
X180146662Y-89750961D02*
X180241900Y-89798580D01*
X180432376Y-89798580D01*
X180527614Y-89750961D01*
X180575233Y-89655723D01*
X180575233Y-89608104D01*
X180527614Y-89512866D01*
X180432376Y-89465247D01*
X180289519Y-89465247D01*
X180194281Y-89417628D01*
X180146662Y-89322390D01*
X180146662Y-89274771D01*
X180194281Y-89179533D01*
X180289519Y-89131914D01*
X180432376Y-89131914D01*
X180527614Y-89179533D01*
X181384757Y-89750961D02*
X181289519Y-89798580D01*
X181099043Y-89798580D01*
X181003805Y-89750961D01*
X180956186Y-89655723D01*
X180956186Y-89274771D01*
X181003805Y-89179533D01*
X181099043Y-89131914D01*
X181289519Y-89131914D01*
X181384757Y-89179533D01*
X181432376Y-89274771D01*
X181432376Y-89370009D01*
X180956186Y-89465247D01*
X182384757Y-89798580D02*
X181813328Y-89798580D01*
X182099043Y-89798580D02*
X182099043Y-88798580D01*
X182003805Y-88941438D01*
X181908567Y-89036676D01*
X181813328Y-89084295D01*
%TO.C,R4*%
X153846133Y-84105980D02*
X153512800Y-83629790D01*
X153274704Y-84105980D02*
X153274704Y-83105980D01*
X153655657Y-83105980D01*
X153750895Y-83153600D01*
X153798514Y-83201219D01*
X153846133Y-83296457D01*
X153846133Y-83439314D01*
X153798514Y-83534552D01*
X153750895Y-83582171D01*
X153655657Y-83629790D01*
X153274704Y-83629790D01*
X154703276Y-83439314D02*
X154703276Y-84105980D01*
X154465180Y-83058361D02*
X154227085Y-83772647D01*
X154846133Y-83772647D01*
%TO.C,J2*%
X173891666Y-92232780D02*
X173891666Y-92947066D01*
X173844047Y-93089923D01*
X173748809Y-93185161D01*
X173605952Y-93232780D01*
X173510714Y-93232780D01*
X174320238Y-92328019D02*
X174367857Y-92280400D01*
X174463095Y-92232780D01*
X174701190Y-92232780D01*
X174796428Y-92280400D01*
X174844047Y-92328019D01*
X174891666Y-92423257D01*
X174891666Y-92518495D01*
X174844047Y-92661352D01*
X174272619Y-93232780D01*
X174891666Y-93232780D01*
%TO.C,R2*%
X153846133Y-73544380D02*
X153512800Y-73068190D01*
X153274704Y-73544380D02*
X153274704Y-72544380D01*
X153655657Y-72544380D01*
X153750895Y-72592000D01*
X153798514Y-72639619D01*
X153846133Y-72734857D01*
X153846133Y-72877714D01*
X153798514Y-72972952D01*
X153750895Y-73020571D01*
X153655657Y-73068190D01*
X153274704Y-73068190D01*
X154227085Y-72639619D02*
X154274704Y-72592000D01*
X154369942Y-72544380D01*
X154608038Y-72544380D01*
X154703276Y-72592000D01*
X154750895Y-72639619D01*
X154798514Y-72734857D01*
X154798514Y-72830095D01*
X154750895Y-72972952D01*
X154179466Y-73544380D01*
X154798514Y-73544380D01*
%TO.C,R1*%
X153846133Y-68263580D02*
X153512800Y-67787390D01*
X153274704Y-68263580D02*
X153274704Y-67263580D01*
X153655657Y-67263580D01*
X153750895Y-67311200D01*
X153798514Y-67358819D01*
X153846133Y-67454057D01*
X153846133Y-67596914D01*
X153798514Y-67692152D01*
X153750895Y-67739771D01*
X153655657Y-67787390D01*
X153274704Y-67787390D01*
X154798514Y-68263580D02*
X154227085Y-68263580D01*
X154512800Y-68263580D02*
X154512800Y-67263580D01*
X154417561Y-67406438D01*
X154322323Y-67501676D01*
X154227085Y-67549295D01*
%TO.C,R3*%
X153846133Y-78825180D02*
X153512800Y-78348990D01*
X153274704Y-78825180D02*
X153274704Y-77825180D01*
X153655657Y-77825180D01*
X153750895Y-77872800D01*
X153798514Y-77920419D01*
X153846133Y-78015657D01*
X153846133Y-78158514D01*
X153798514Y-78253752D01*
X153750895Y-78301371D01*
X153655657Y-78348990D01*
X153274704Y-78348990D01*
X154179466Y-77825180D02*
X154798514Y-77825180D01*
X154465180Y-78206133D01*
X154608038Y-78206133D01*
X154703276Y-78253752D01*
X154750895Y-78301371D01*
X154798514Y-78396609D01*
X154798514Y-78634704D01*
X154750895Y-78729942D01*
X154703276Y-78777561D01*
X154608038Y-78825180D01*
X154322323Y-78825180D01*
X154227085Y-78777561D01*
X154179466Y-78729942D01*
%TO.C,J3*%
X169209166Y-91568580D02*
X169209166Y-92282866D01*
X169161547Y-92425723D01*
X169066309Y-92520961D01*
X168923452Y-92568580D01*
X168828214Y-92568580D01*
X169590119Y-91568580D02*
X170209166Y-91568580D01*
X169875833Y-91949533D01*
X170018690Y-91949533D01*
X170113928Y-91997152D01*
X170161547Y-92044771D01*
X170209166Y-92140009D01*
X170209166Y-92378104D01*
X170161547Y-92473342D01*
X170113928Y-92520961D01*
X170018690Y-92568580D01*
X169732976Y-92568580D01*
X169637738Y-92520961D01*
X169590119Y-92473342D01*
%TO.C,J1*%
X150396666Y-92232780D02*
X150396666Y-92947066D01*
X150349047Y-93089923D01*
X150253809Y-93185161D01*
X150110952Y-93232780D01*
X150015714Y-93232780D01*
X151396666Y-93232780D02*
X150825238Y-93232780D01*
X151110952Y-93232780D02*
X151110952Y-92232780D01*
X151015714Y-92375638D01*
X150920476Y-92470876D01*
X150825238Y-92518495D01*
D11*
%TO.C,U1*%
X133000723Y-94087919D02*
X134028819Y-94087919D01*
X134149771Y-94027442D01*
X134210247Y-93966966D01*
X134270723Y-93846014D01*
X134270723Y-93604109D01*
X134210247Y-93483157D01*
X134149771Y-93422680D01*
X134028819Y-93362204D01*
X133000723Y-93362204D01*
X134270723Y-92092204D02*
X134270723Y-92817919D01*
X134270723Y-92455061D02*
X133000723Y-92455061D01*
X133182152Y-92576014D01*
X133303104Y-92696966D01*
X133363580Y-92817919D01*
%TO.C,IC1*%
X161444938Y-104029323D02*
X161444938Y-102759323D01*
X162775414Y-103908371D02*
X162714938Y-103968847D01*
X162533509Y-104029323D01*
X162412557Y-104029323D01*
X162231128Y-103968847D01*
X162110176Y-103847895D01*
X162049700Y-103726942D01*
X161989223Y-103485038D01*
X161989223Y-103303609D01*
X162049700Y-103061704D01*
X162110176Y-102940752D01*
X162231128Y-102819800D01*
X162412557Y-102759323D01*
X162533509Y-102759323D01*
X162714938Y-102819800D01*
X162775414Y-102880276D01*
X163984938Y-104029323D02*
X163259223Y-104029323D01*
X163622080Y-104029323D02*
X163622080Y-102759323D01*
X163501128Y-102940752D01*
X163380176Y-103061704D01*
X163259223Y-103122180D01*
D10*
%TO.C,C1*%
X153621133Y-63072642D02*
X153573514Y-63120261D01*
X153430657Y-63167880D01*
X153335419Y-63167880D01*
X153192561Y-63120261D01*
X153097323Y-63025023D01*
X153049704Y-62929785D01*
X153002085Y-62739309D01*
X153002085Y-62596452D01*
X153049704Y-62405976D01*
X153097323Y-62310738D01*
X153192561Y-62215500D01*
X153335419Y-62167880D01*
X153430657Y-62167880D01*
X153573514Y-62215500D01*
X153621133Y-62263119D01*
X154573514Y-63167880D02*
X154002085Y-63167880D01*
X154287800Y-63167880D02*
X154287800Y-62167880D01*
X154192561Y-62310738D01*
X154097323Y-62405976D01*
X154002085Y-62453595D01*
D11*
%TO.C,IC2*%
X161444938Y-122080423D02*
X161444938Y-120810423D01*
X162775414Y-121959471D02*
X162714938Y-122019947D01*
X162533509Y-122080423D01*
X162412557Y-122080423D01*
X162231128Y-122019947D01*
X162110176Y-121898995D01*
X162049700Y-121778042D01*
X161989223Y-121536138D01*
X161989223Y-121354709D01*
X162049700Y-121112804D01*
X162110176Y-120991852D01*
X162231128Y-120870900D01*
X162412557Y-120810423D01*
X162533509Y-120810423D01*
X162714938Y-120870900D01*
X162775414Y-120931376D01*
X163259223Y-120931376D02*
X163319700Y-120870900D01*
X163440652Y-120810423D01*
X163743033Y-120810423D01*
X163863985Y-120870900D01*
X163924461Y-120931376D01*
X163984938Y-121052328D01*
X163984938Y-121173280D01*
X163924461Y-121354709D01*
X163198747Y-122080423D01*
X163984938Y-122080423D01*
D12*
%TO.C,R4*%
X154112800Y-86023600D02*
X154182800Y-86023600D01*
X154112800Y-86023600D02*
G75*
G03*
X154112800Y-86023600I-1370000J0D01*
G01*
%TO.C,J2*%
X172895000Y-96380400D02*
X172895000Y-132000400D01*
X175555000Y-96380400D02*
X175555000Y-132000400D01*
X172895000Y-95110400D02*
X172895000Y-93780400D01*
X172895000Y-132000400D02*
X175555000Y-132000400D01*
X172895000Y-96380400D02*
X175555000Y-96380400D01*
X172895000Y-93780400D02*
X174225000Y-93780400D01*
%TO.C,R2*%
X154112800Y-75462000D02*
X154182800Y-75462000D01*
X154112800Y-75462000D02*
G75*
G03*
X154112800Y-75462000I-1370000J0D01*
G01*
%TO.C,R1*%
X154112800Y-70181200D02*
X154182800Y-70181200D01*
X154112800Y-70181200D02*
G75*
G03*
X154112800Y-70181200I-1370000J0D01*
G01*
%TO.C,R3*%
X154112800Y-80742800D02*
X154182800Y-80742800D01*
X154112800Y-80742800D02*
G75*
G03*
X154112800Y-80742800I-1370000J0D01*
G01*
%TO.C,J3*%
X176522500Y-57596200D02*
X167892500Y-57596200D01*
X165382500Y-76286200D02*
X164942500Y-76286200D01*
X167892500Y-68666200D02*
X167482500Y-68666200D01*
X176522500Y-88784775D02*
X167892500Y-88784775D01*
X176522500Y-89847630D02*
X167892500Y-89847630D01*
X167892500Y-79546200D02*
X167482500Y-79546200D01*
X167892500Y-87166200D02*
X167482500Y-87166200D01*
X165382500Y-81366200D02*
X164942500Y-81366200D01*
X167892500Y-86446200D02*
X167482500Y-86446200D01*
X167892500Y-54146200D02*
X167482500Y-54146200D01*
X167892500Y-55966200D02*
X167482500Y-55966200D01*
X167892500Y-64306200D02*
X167482500Y-64306200D01*
X176522500Y-52456200D02*
X167892500Y-52456200D01*
X165382500Y-84626200D02*
X164942500Y-84626200D01*
X176522500Y-72836200D02*
X167892500Y-72836200D01*
X167892500Y-74466200D02*
X167482500Y-74466200D01*
X176522500Y-89257155D02*
X167892500Y-89257155D01*
X176522500Y-60136200D02*
X167892500Y-60136200D01*
X176522500Y-89965725D02*
X167892500Y-89965725D01*
X167892500Y-69386200D02*
X167482500Y-69386200D01*
X167892500Y-83906200D02*
X167482500Y-83906200D01*
X165382500Y-69386200D02*
X164942500Y-69386200D01*
X167892500Y-77006200D02*
X167482500Y-77006200D01*
X176522500Y-55056200D02*
X167892500Y-55056200D01*
X167892500Y-84626200D02*
X167482500Y-84626200D01*
X165382500Y-61766200D02*
X164942500Y-61766200D01*
X176522500Y-88666680D02*
X167892500Y-88666680D01*
X167892500Y-58506200D02*
X167482500Y-58506200D01*
X176522500Y-90676200D02*
X176522500Y-52456200D01*
X165382500Y-54146200D02*
X164942500Y-54146200D01*
X176522500Y-82996200D02*
X167892500Y-82996200D01*
X167892500Y-71206200D02*
X167482500Y-71206200D01*
X165382500Y-74466200D02*
X164942500Y-74466200D01*
X167892500Y-63586200D02*
X167482500Y-63586200D01*
X176522500Y-90320010D02*
X167892500Y-90320010D01*
X167892500Y-73746200D02*
X167482500Y-73746200D01*
X176522500Y-88194300D02*
X167892500Y-88194300D01*
X165382500Y-53426200D02*
X164942500Y-53426200D01*
X176522500Y-90438105D02*
X167892500Y-90438105D01*
X162782500Y-90676200D02*
X162782500Y-89346200D01*
X167892500Y-76286200D02*
X167482500Y-76286200D01*
X165382500Y-56686200D02*
X164942500Y-56686200D01*
X165382500Y-61046200D02*
X164942500Y-61046200D01*
X176522500Y-90676200D02*
X167892500Y-90676200D01*
X176522500Y-88312395D02*
X167892500Y-88312395D01*
X165382500Y-68666200D02*
X164942500Y-68666200D01*
X165382500Y-82086200D02*
X164942500Y-82086200D01*
X176522500Y-85536200D02*
X167892500Y-85536200D01*
X176522500Y-90556200D02*
X167892500Y-90556200D01*
X165382500Y-79546200D02*
X164942500Y-79546200D01*
X167892500Y-89706200D02*
X167482500Y-89706200D01*
X165382500Y-88986200D02*
X165002500Y-88986200D01*
X176522500Y-89493345D02*
X167892500Y-89493345D01*
X165382500Y-66126200D02*
X164942500Y-66126200D01*
X176522500Y-89729535D02*
X167892500Y-89729535D01*
X167892500Y-88986200D02*
X167482500Y-88986200D01*
X165382500Y-63586200D02*
X164942500Y-63586200D01*
X165382500Y-86446200D02*
X164942500Y-86446200D01*
X165382500Y-58506200D02*
X164942500Y-58506200D01*
X167892500Y-53426200D02*
X167482500Y-53426200D01*
X176522500Y-88076200D02*
X167892500Y-88076200D01*
X165382500Y-66846200D02*
X164942500Y-66846200D01*
X167892500Y-66846200D02*
X167482500Y-66846200D01*
X167892500Y-56686200D02*
X167482500Y-56686200D01*
X176522500Y-75376200D02*
X167892500Y-75376200D01*
X165382500Y-71206200D02*
X164942500Y-71206200D01*
X167892500Y-61046200D02*
X167482500Y-61046200D01*
X176522500Y-88548585D02*
X167892500Y-88548585D01*
X167892500Y-90676200D02*
X167892500Y-52456200D01*
X165382500Y-64306200D02*
X164942500Y-64306200D01*
X165382500Y-73746200D02*
X164942500Y-73746200D01*
X176522500Y-90201915D02*
X167892500Y-90201915D01*
X167892500Y-59226200D02*
X167482500Y-59226200D01*
X176522500Y-62676200D02*
X167892500Y-62676200D01*
X176522500Y-90083820D02*
X167892500Y-90083820D01*
X165382500Y-77006200D02*
X164942500Y-77006200D01*
X165382500Y-87166200D02*
X164942500Y-87166200D01*
X163892500Y-90676200D02*
X162782500Y-90676200D01*
X165382500Y-59226200D02*
X164942500Y-59226200D01*
X176522500Y-88430490D02*
X167892500Y-88430490D01*
X176522500Y-89611440D02*
X167892500Y-89611440D01*
X176522500Y-65216200D02*
X167892500Y-65216200D01*
X165382500Y-78826200D02*
X164942500Y-78826200D01*
X176522500Y-67756200D02*
X167892500Y-67756200D01*
X165382500Y-71926200D02*
X164942500Y-71926200D01*
X176522500Y-89020965D02*
X167892500Y-89020965D01*
X167892500Y-82086200D02*
X167482500Y-82086200D01*
X167892500Y-81366200D02*
X167482500Y-81366200D01*
X167892500Y-66126200D02*
X167482500Y-66126200D01*
X165382500Y-89706200D02*
X165002500Y-89706200D01*
X176522500Y-89375250D02*
X167892500Y-89375250D01*
X176522500Y-77916200D02*
X167892500Y-77916200D01*
X167892500Y-78826200D02*
X167482500Y-78826200D01*
X165382500Y-55966200D02*
X164942500Y-55966200D01*
X176522500Y-80456200D02*
X167892500Y-80456200D01*
X167892500Y-71926200D02*
X167482500Y-71926200D01*
X176522500Y-88902870D02*
X167892500Y-88902870D01*
X176522500Y-89139060D02*
X167892500Y-89139060D01*
X176522500Y-70296200D02*
X167892500Y-70296200D01*
X167892500Y-61766200D02*
X167482500Y-61766200D01*
X165382500Y-83906200D02*
X164942500Y-83906200D01*
%TO.C,J1*%
X152060000Y-96380400D02*
X152060000Y-132000400D01*
X149400000Y-93780400D02*
X150730000Y-93780400D01*
X149400000Y-96380400D02*
X149400000Y-132000400D01*
X149400000Y-96380400D02*
X152060000Y-96380400D01*
X149400000Y-95110400D02*
X149400000Y-93780400D01*
X149400000Y-132000400D02*
X152060000Y-132000400D01*
D13*
%TO.C,U1*%
X123371200Y-130958300D02*
X144021200Y-130958300D01*
X144021200Y-53908300D02*
X144021200Y-118073300D01*
X123371200Y-53908300D02*
X123371200Y-53908300D01*
X144021200Y-53908300D02*
X123371200Y-53908300D01*
D14*
X133946200Y-132233300D02*
X133946200Y-132233300D01*
D13*
X144021200Y-130958300D02*
X123371200Y-130958300D01*
X144021200Y-53908300D02*
X144021200Y-53908300D01*
X144021200Y-130958300D02*
X144021200Y-121823300D01*
D14*
X133946200Y-132333300D02*
X133946200Y-132333300D01*
D13*
X123371200Y-62823300D02*
X123371200Y-62823300D01*
X123371200Y-66573300D02*
X123371200Y-130958300D01*
X123371200Y-130958300D02*
X123371200Y-66573300D01*
X123371200Y-130958300D02*
X123371200Y-130958300D01*
X123371200Y-62823300D02*
X123371200Y-53908300D01*
X144021200Y-118073300D02*
X144021200Y-53908300D01*
X144021200Y-118073300D02*
X144021200Y-118073300D01*
X144021200Y-130958300D02*
X144021200Y-130958300D01*
X144021200Y-121823300D02*
X144021200Y-121823300D01*
X123371200Y-66573300D02*
X123371200Y-66573300D01*
X144021200Y-130958300D02*
X144021200Y-130958300D01*
X123371200Y-53908300D02*
X123371200Y-62823300D01*
X123371200Y-53908300D02*
X144021200Y-53908300D01*
D14*
X133946200Y-132333300D02*
X133946200Y-132333300D01*
D13*
X144021200Y-121823300D02*
X144021200Y-130958300D01*
X144021200Y-53908300D02*
X144021200Y-53908300D01*
X123371200Y-130958300D02*
X123371200Y-130958300D01*
X123371200Y-53908300D02*
X123371200Y-53908300D01*
D14*
X133946200Y-132233300D02*
G75*
G03*
X133946200Y-132333300I0J-50000D01*
G01*
X133946200Y-132333300D02*
G75*
G03*
X133946200Y-132233300I0J50000D01*
G01*
X133946200Y-132333300D02*
G75*
G03*
X133946200Y-132233300I0J50000D01*
G01*
%TO.C,IC1*%
X159284700Y-111154800D02*
X159284700Y-95754800D01*
X159284700Y-95754800D02*
X166084700Y-95754800D01*
X156984700Y-95794800D02*
X158934700Y-95794800D01*
X166084700Y-95754800D02*
X166084700Y-111154800D01*
X166084700Y-111154800D02*
X159284700Y-111154800D01*
D12*
%TO.C,C1*%
X150667800Y-63845500D02*
X150667800Y-64290500D01*
X150667800Y-63845500D02*
X156907800Y-63845500D01*
X150667800Y-66585500D02*
X156907800Y-66585500D01*
X150667800Y-66140500D02*
X150667800Y-66585500D01*
X156907800Y-66140500D02*
X156907800Y-66585500D01*
X156907800Y-63845500D02*
X156907800Y-64290500D01*
D14*
%TO.C,IC2*%
X166084700Y-113805900D02*
X166084700Y-129205900D01*
X159284700Y-113805900D02*
X166084700Y-113805900D01*
X166084700Y-129205900D02*
X159284700Y-129205900D01*
X159284700Y-129205900D02*
X159284700Y-113805900D01*
X156984700Y-113845900D02*
X158934700Y-113845900D01*
%TD*%
M02*
