%TF.GenerationSoftware,KiCad,Pcbnew,(6.0.0)*%
%TF.CreationDate,2022-04-22T12:33:35-07:00*%
%TF.ProjectId,Garden-Soil-MoistureSensor,47617264-656e-42d5-936f-696c2d4d6f69,rev?*%
%TF.SameCoordinates,Original*%
%TF.FileFunction,Paste,Top*%
%TF.FilePolarity,Positive*%
%FSLAX46Y46*%
G04 Gerber Fmt 4.6, Leading zero omitted, Abs format (unit mm)*
G04 Created by KiCad (PCBNEW (6.0.0)) date 2022-04-22 12:33:35*
%MOMM*%
%LPD*%
G01*
G04 APERTURE LIST*
%ADD10R,1.950000X0.650000*%
G04 APERTURE END LIST*
D10*
%TO.C,IC1*%
X157959700Y-96469800D03*
X157959700Y-97739800D03*
X157959700Y-99009800D03*
X157959700Y-100279800D03*
X157959700Y-101549800D03*
X157959700Y-102819800D03*
X157959700Y-104089800D03*
X157959700Y-105359800D03*
X157959700Y-106629800D03*
X157959700Y-107899800D03*
X157959700Y-109169800D03*
X157959700Y-110439800D03*
X167409700Y-110439800D03*
X167409700Y-109169800D03*
X167409700Y-107899800D03*
X167409700Y-106629800D03*
X167409700Y-105359800D03*
X167409700Y-104089800D03*
X167409700Y-102819800D03*
X167409700Y-101549800D03*
X167409700Y-100279800D03*
X167409700Y-99009800D03*
X167409700Y-97739800D03*
X167409700Y-96469800D03*
%TD*%
%TO.C,IC2*%
X157959700Y-114520900D03*
X157959700Y-115790900D03*
X157959700Y-117060900D03*
X157959700Y-118330900D03*
X157959700Y-119600900D03*
X157959700Y-120870900D03*
X157959700Y-122140900D03*
X157959700Y-123410900D03*
X157959700Y-124680900D03*
X157959700Y-125950900D03*
X157959700Y-127220900D03*
X157959700Y-128490900D03*
X167409700Y-128490900D03*
X167409700Y-127220900D03*
X167409700Y-125950900D03*
X167409700Y-124680900D03*
X167409700Y-123410900D03*
X167409700Y-122140900D03*
X167409700Y-120870900D03*
X167409700Y-119600900D03*
X167409700Y-118330900D03*
X167409700Y-117060900D03*
X167409700Y-115790900D03*
X167409700Y-114520900D03*
%TD*%
M02*
