M48
INCH,TZ
T1C0.0157
T2C0.0315
T3C0.0394
T4C0.0520
T5C0.0941
T6C0.1250
T7C0.1398
%
G90
G05
T1
X60668Y-45013
X60832Y-46822
X61248Y-43609
X62769Y-44812
X62819Y-42309
X63408Y-40813
X63660Y-40508
X63972Y-36734
X64183Y-36387
X64533Y-35930
X64873Y-41949
X65277Y-40100
X65282Y-41233
X65287Y-40840
X65301Y-39225
X65397Y-43849
X65569Y-37389
X66172Y-29641
X66421Y-44752
X69783Y-39950
T2
X59562Y-25675
X60135Y-27630
X60135Y-29709
X60135Y-31789
X60135Y-33868
X61135Y-27630
X61135Y-29709
X61135Y-31789
X61135Y-33868
X61531Y-25675
T3
X59343Y-37445
X59343Y-38445
X59343Y-39445
X59343Y-40445
X59343Y-41445
X59343Y-42445
X59343Y-43445
X59343Y-44445
X59343Y-45445
X59343Y-46445
X59343Y-47445
X59343Y-48445
X59343Y-49445
X59343Y-50445
X59343Y-51445
X64525Y-21176
X64525Y-22176
X64525Y-23176
X64525Y-24176
X64525Y-25176
X64525Y-26176
X64525Y-27176
X64525Y-28176
X64525Y-29176
X64525Y-30176
X64525Y-31176
X64525Y-32176
X64525Y-33176
X64525Y-34176
X64525Y-35176
X65525Y-21176
X65525Y-22176
X65525Y-23176
X65525Y-24176
X65525Y-25176
X65525Y-26176
X65525Y-27176
X65525Y-28176
X65525Y-29176
X65525Y-30176
X65525Y-31176
X65525Y-32176
X65525Y-33176
X65525Y-34176
X65525Y-35176
X68593Y-37445
X68593Y-38445
X68593Y-39445
X68593Y-40445
X68593Y-41445
X68593Y-42445
X68593Y-43445
X68593Y-44445
X68593Y-45445
X68593Y-46445
X68593Y-47445
X68593Y-48445
X68593Y-49445
X68593Y-50445
X68593Y-51445
T4
X52636Y-22178
X52636Y-50604
T5
X55735Y-22178
T6
X46250Y-53000
X46260Y-19500
X71000Y-19500
X71000Y-53000
T7
X49538Y-25470
X55735Y-47202
T0
M30
