%TF.GenerationSoftware,KiCad,Pcbnew,(6.0.0)*%
%TF.CreationDate,2022-04-22T12:33:35-07:00*%
%TF.ProjectId,Garden-Soil-MoistureSensor,47617264-656e-42d5-936f-696c2d4d6f69,rev?*%
%TF.SameCoordinates,Original*%
%TF.FileFunction,Soldermask,Top*%
%TF.FilePolarity,Negative*%
%FSLAX46Y46*%
G04 Gerber Fmt 4.6, Leading zero omitted, Abs format (unit mm)*
G04 Created by KiCad (PCBNEW (6.0.0)) date 2022-04-22 12:33:35*
%MOMM*%
%LPD*%
G01*
G04 APERTURE LIST*
%ADD10C,1.600000*%
%ADD11O,1.600000X1.600000*%
%ADD12R,1.700000X1.700000*%
%ADD13O,1.700000X1.700000*%
%ADD14C,1.980000*%
%ADD15C,5.325000*%
%ADD16C,3.585000*%
%ADD17R,1.950000X0.650000*%
G04 APERTURE END LIST*
D10*
%TO.C,R4*%
X152742800Y-86023600D03*
D11*
X155282800Y-86023600D03*
%TD*%
D12*
%TO.C,J2*%
X174225000Y-95110400D03*
D13*
X174225000Y-97650400D03*
X174225000Y-100190400D03*
X174225000Y-102730400D03*
X174225000Y-105270400D03*
X174225000Y-107810400D03*
X174225000Y-110350400D03*
X174225000Y-112890400D03*
X174225000Y-115430400D03*
X174225000Y-117970400D03*
X174225000Y-120510400D03*
X174225000Y-123050400D03*
X174225000Y-125590400D03*
X174225000Y-128130400D03*
X174225000Y-130670400D03*
%TD*%
D10*
%TO.C,R2*%
X152742800Y-75462000D03*
D11*
X155282800Y-75462000D03*
%TD*%
D10*
%TO.C,R1*%
X152742800Y-70181200D03*
D11*
X155282800Y-70181200D03*
%TD*%
D10*
%TO.C,R3*%
X152742800Y-80742800D03*
D11*
X155282800Y-80742800D03*
%TD*%
D12*
%TO.C,J3*%
X163892500Y-89346200D03*
D13*
X166432500Y-89346200D03*
X163892500Y-86806200D03*
X166432500Y-86806200D03*
X163892500Y-84266200D03*
X166432500Y-84266200D03*
X163892500Y-81726200D03*
X166432500Y-81726200D03*
X163892500Y-79186200D03*
X166432500Y-79186200D03*
X163892500Y-76646200D03*
X166432500Y-76646200D03*
X163892500Y-74106200D03*
X166432500Y-74106200D03*
X163892500Y-71566200D03*
X166432500Y-71566200D03*
X163892500Y-69026200D03*
X166432500Y-69026200D03*
X163892500Y-66486200D03*
X166432500Y-66486200D03*
X163892500Y-63946200D03*
X166432500Y-63946200D03*
X163892500Y-61406200D03*
X166432500Y-61406200D03*
X163892500Y-58866200D03*
X166432500Y-58866200D03*
X163892500Y-56326200D03*
X166432500Y-56326200D03*
X163892500Y-53786200D03*
X166432500Y-53786200D03*
%TD*%
D12*
%TO.C,J1*%
X150730000Y-95110400D03*
D13*
X150730000Y-97650400D03*
X150730000Y-100190400D03*
X150730000Y-102730400D03*
X150730000Y-105270400D03*
X150730000Y-107810400D03*
X150730000Y-110350400D03*
X150730000Y-112890400D03*
X150730000Y-115430400D03*
X150730000Y-117970400D03*
X150730000Y-120510400D03*
X150730000Y-123050400D03*
X150730000Y-125590400D03*
X150730000Y-128130400D03*
X150730000Y-130670400D03*
%TD*%
D14*
%TO.C,U1*%
X133696200Y-128533300D03*
X133696200Y-56333300D03*
D15*
X141566200Y-119893300D03*
D16*
X141566200Y-56333300D03*
D15*
X125826200Y-64693300D03*
%TD*%
D17*
%TO.C,IC1*%
X157959700Y-96469800D03*
X157959700Y-97739800D03*
X157959700Y-99009800D03*
X157959700Y-100279800D03*
X157959700Y-101549800D03*
X157959700Y-102819800D03*
X157959700Y-104089800D03*
X157959700Y-105359800D03*
X157959700Y-106629800D03*
X157959700Y-107899800D03*
X157959700Y-109169800D03*
X157959700Y-110439800D03*
X167409700Y-110439800D03*
X167409700Y-109169800D03*
X167409700Y-107899800D03*
X167409700Y-106629800D03*
X167409700Y-105359800D03*
X167409700Y-104089800D03*
X167409700Y-102819800D03*
X167409700Y-101549800D03*
X167409700Y-100279800D03*
X167409700Y-99009800D03*
X167409700Y-97739800D03*
X167409700Y-96469800D03*
%TD*%
D10*
%TO.C,C1*%
X151287800Y-65215500D03*
X156287800Y-65215500D03*
%TD*%
D17*
%TO.C,IC2*%
X157959700Y-114520900D03*
X157959700Y-115790900D03*
X157959700Y-117060900D03*
X157959700Y-118330900D03*
X157959700Y-119600900D03*
X157959700Y-120870900D03*
X157959700Y-122140900D03*
X157959700Y-123410900D03*
X157959700Y-124680900D03*
X157959700Y-125950900D03*
X157959700Y-127220900D03*
X157959700Y-128490900D03*
X167409700Y-128490900D03*
X167409700Y-127220900D03*
X167409700Y-125950900D03*
X167409700Y-124680900D03*
X167409700Y-123410900D03*
X167409700Y-122140900D03*
X167409700Y-120870900D03*
X167409700Y-119600900D03*
X167409700Y-118330900D03*
X167409700Y-117060900D03*
X167409700Y-115790900D03*
X167409700Y-114520900D03*
%TD*%
M02*
