M48
INCH,TZ
T1C0.0315
T2C0.0394
T3C0.0512
T4C0.0520
T5C0.0941
T6C0.1250
T7C0.1398
%
G90
G05
T1
X61658Y-31845
X62658Y-31845
X64068Y-31820
X65068Y-31820
T2
X59612Y-34584
X59612Y-35584
X59612Y-36584
X59612Y-37584
X59612Y-38584
X59612Y-39584
X59612Y-40584
X59612Y-41584
X59612Y-42584
X59612Y-43584
X59612Y-44584
X59612Y-45584
X59612Y-46584
X59612Y-47584
X59612Y-48584
X68862Y-34584
X68862Y-35584
X68862Y-36584
X68862Y-37584
X68862Y-38584
X68862Y-39584
X68862Y-40584
X68862Y-41584
X68862Y-42584
X68862Y-43584
X68862Y-44584
X68862Y-45584
X68862Y-46584
X68862Y-47584
X68862Y-48584
T3
X62263Y-27624
X64263Y-27624
T4
X52524Y-22395
X52524Y-50821
T5
X55622Y-22395
T6
X46250Y-21250
X46250Y-52750
X68750Y-21250
X68750Y-52750
T7
X49426Y-25687
X55622Y-47419
T0
M30
