%TF.GenerationSoftware,KiCad,Pcbnew,(6.0.0)*%
%TF.CreationDate,2022-04-22T11:48:44-07:00*%
%TF.ProjectId,Garden-Soil-MoistureSensor-Minimal,47617264-656e-42d5-936f-696c2d4d6f69,rev?*%
%TF.SameCoordinates,Original*%
%TF.FileFunction,Legend,Top*%
%TF.FilePolarity,Positive*%
%FSLAX46Y46*%
G04 Gerber Fmt 4.6, Leading zero omitted, Abs format (unit mm)*
G04 Created by KiCad (PCBNEW (6.0.0)) date 2022-04-22 11:48:44*
%MOMM*%
%LPD*%
G01*
G04 APERTURE LIST*
%ADD10C,0.254000*%
%ADD11C,0.150000*%
%ADD12C,0.120000*%
%ADD13C,0.100000*%
%ADD14C,0.200000*%
G04 APERTURE END LIST*
D10*
X151081477Y-57047193D02*
X151226620Y-57095574D01*
X151468524Y-57095574D01*
X151565286Y-57047193D01*
X151613667Y-56998812D01*
X151662048Y-56902050D01*
X151662048Y-56805288D01*
X151613667Y-56708526D01*
X151565286Y-56660145D01*
X151468524Y-56611764D01*
X151275001Y-56563383D01*
X151178239Y-56515002D01*
X151129858Y-56466621D01*
X151081477Y-56369859D01*
X151081477Y-56273097D01*
X151129858Y-56176335D01*
X151178239Y-56127955D01*
X151275001Y-56079574D01*
X151516905Y-56079574D01*
X151662048Y-56127955D01*
X152097477Y-57095574D02*
X152097477Y-56418240D01*
X152097477Y-56079574D02*
X152049096Y-56127955D01*
X152097477Y-56176335D01*
X152145858Y-56127955D01*
X152097477Y-56079574D01*
X152097477Y-56176335D01*
X152581286Y-57095574D02*
X152581286Y-56418240D01*
X152581286Y-56515002D02*
X152629667Y-56466621D01*
X152726429Y-56418240D01*
X152871572Y-56418240D01*
X152968334Y-56466621D01*
X153016715Y-56563383D01*
X153016715Y-57095574D01*
X153016715Y-56563383D02*
X153065096Y-56466621D01*
X153161858Y-56418240D01*
X153307001Y-56418240D01*
X153403762Y-56466621D01*
X153452143Y-56563383D01*
X153452143Y-57095574D01*
X153935953Y-56418240D02*
X153935953Y-57434240D01*
X153935953Y-56466621D02*
X154032715Y-56418240D01*
X154226239Y-56418240D01*
X154323001Y-56466621D01*
X154371382Y-56515002D01*
X154419762Y-56611764D01*
X154419762Y-56902050D01*
X154371382Y-56998812D01*
X154323001Y-57047193D01*
X154226239Y-57095574D01*
X154032715Y-57095574D01*
X153935953Y-57047193D01*
X155000334Y-57095574D02*
X154903572Y-57047193D01*
X154855191Y-56950431D01*
X154855191Y-56079574D01*
X155774429Y-57047193D02*
X155677667Y-57095574D01*
X155484143Y-57095574D01*
X155387382Y-57047193D01*
X155339001Y-56950431D01*
X155339001Y-56563383D01*
X155387382Y-56466621D01*
X155484143Y-56418240D01*
X155677667Y-56418240D01*
X155774429Y-56466621D01*
X155822810Y-56563383D01*
X155822810Y-56660145D01*
X155339001Y-56756907D01*
X156983953Y-57047193D02*
X157129096Y-57095574D01*
X157371001Y-57095574D01*
X157467762Y-57047193D01*
X157516143Y-56998812D01*
X157564524Y-56902050D01*
X157564524Y-56805288D01*
X157516143Y-56708526D01*
X157467762Y-56660145D01*
X157371001Y-56611764D01*
X157177477Y-56563383D01*
X157080715Y-56515002D01*
X157032334Y-56466621D01*
X156983953Y-56369859D01*
X156983953Y-56273097D01*
X157032334Y-56176335D01*
X157080715Y-56127955D01*
X157177477Y-56079574D01*
X157419382Y-56079574D01*
X157564524Y-56127955D01*
X158145096Y-57095574D02*
X158048334Y-57047193D01*
X157999953Y-56998812D01*
X157951572Y-56902050D01*
X157951572Y-56611764D01*
X157999953Y-56515002D01*
X158048334Y-56466621D01*
X158145096Y-56418240D01*
X158290239Y-56418240D01*
X158387001Y-56466621D01*
X158435382Y-56515002D01*
X158483762Y-56611764D01*
X158483762Y-56902050D01*
X158435382Y-56998812D01*
X158387001Y-57047193D01*
X158290239Y-57095574D01*
X158145096Y-57095574D01*
X158919191Y-57095574D02*
X158919191Y-56418240D01*
X158919191Y-56079574D02*
X158870810Y-56127955D01*
X158919191Y-56176335D01*
X158967572Y-56127955D01*
X158919191Y-56079574D01*
X158919191Y-56176335D01*
X159548143Y-57095574D02*
X159451382Y-57047193D01*
X159403001Y-56950431D01*
X159403001Y-56079574D01*
X160709286Y-57095574D02*
X160709286Y-56079574D01*
X161047953Y-56805288D01*
X161386620Y-56079574D01*
X161386620Y-57095574D01*
X162015572Y-57095574D02*
X161918810Y-57047193D01*
X161870429Y-56998812D01*
X161822048Y-56902050D01*
X161822048Y-56611764D01*
X161870429Y-56515002D01*
X161918810Y-56466621D01*
X162015572Y-56418240D01*
X162160715Y-56418240D01*
X162257477Y-56466621D01*
X162305858Y-56515002D01*
X162354239Y-56611764D01*
X162354239Y-56902050D01*
X162305858Y-56998812D01*
X162257477Y-57047193D01*
X162160715Y-57095574D01*
X162015572Y-57095574D01*
X162789667Y-57095574D02*
X162789667Y-56418240D01*
X162789667Y-56079574D02*
X162741286Y-56127955D01*
X162789667Y-56176335D01*
X162838048Y-56127955D01*
X162789667Y-56079574D01*
X162789667Y-56176335D01*
X163225096Y-57047193D02*
X163321858Y-57095574D01*
X163515382Y-57095574D01*
X163612143Y-57047193D01*
X163660524Y-56950431D01*
X163660524Y-56902050D01*
X163612143Y-56805288D01*
X163515382Y-56756907D01*
X163370239Y-56756907D01*
X163273477Y-56708526D01*
X163225096Y-56611764D01*
X163225096Y-56563383D01*
X163273477Y-56466621D01*
X163370239Y-56418240D01*
X163515382Y-56418240D01*
X163612143Y-56466621D01*
X163950810Y-56418240D02*
X164337858Y-56418240D01*
X164095953Y-56079574D02*
X164095953Y-56950431D01*
X164144334Y-57047193D01*
X164241096Y-57095574D01*
X164337858Y-57095574D01*
X165063572Y-57047193D02*
X164966810Y-57095574D01*
X164773286Y-57095574D01*
X164676524Y-57047193D01*
X164628143Y-56950431D01*
X164628143Y-56563383D01*
X164676524Y-56466621D01*
X164773286Y-56418240D01*
X164966810Y-56418240D01*
X165063572Y-56466621D01*
X165111953Y-56563383D01*
X165111953Y-56660145D01*
X164628143Y-56756907D01*
X165547382Y-57095574D02*
X165547382Y-56418240D01*
X165547382Y-56611764D02*
X165595762Y-56515002D01*
X165644143Y-56466621D01*
X165740905Y-56418240D01*
X165837667Y-56418240D01*
X166950429Y-57095574D02*
X166950429Y-56079574D01*
X167289096Y-56805288D01*
X167627762Y-56079574D01*
X167627762Y-57095574D01*
X168498620Y-57047193D02*
X168401858Y-57095574D01*
X168208334Y-57095574D01*
X168111572Y-57047193D01*
X168063191Y-56950431D01*
X168063191Y-56563383D01*
X168111572Y-56466621D01*
X168208334Y-56418240D01*
X168401858Y-56418240D01*
X168498620Y-56466621D01*
X168547001Y-56563383D01*
X168547001Y-56660145D01*
X168063191Y-56756907D01*
X168837286Y-56418240D02*
X169224334Y-56418240D01*
X168982429Y-56079574D02*
X168982429Y-56950431D01*
X169030810Y-57047193D01*
X169127572Y-57095574D01*
X169224334Y-57095574D01*
X169950048Y-57047193D02*
X169853286Y-57095574D01*
X169659762Y-57095574D01*
X169563001Y-57047193D01*
X169514620Y-56950431D01*
X169514620Y-56563383D01*
X169563001Y-56466621D01*
X169659762Y-56418240D01*
X169853286Y-56418240D01*
X169950048Y-56466621D01*
X169998429Y-56563383D01*
X169998429Y-56660145D01*
X169514620Y-56756907D01*
X170433858Y-57095574D02*
X170433858Y-56418240D01*
X170433858Y-56611764D02*
X170482239Y-56515002D01*
X170530620Y-56466621D01*
X170627382Y-56418240D01*
X170724143Y-56418240D01*
X171062810Y-56998812D02*
X171111191Y-57047193D01*
X171062810Y-57095574D01*
X171014429Y-57047193D01*
X171062810Y-56998812D01*
X171062810Y-57095574D01*
X147622239Y-58731334D02*
X147622239Y-57715334D01*
X148202810Y-58731334D01*
X148202810Y-57715334D01*
X148831762Y-58731334D02*
X148735001Y-58682953D01*
X148686620Y-58634572D01*
X148638239Y-58537810D01*
X148638239Y-58247524D01*
X148686620Y-58150762D01*
X148735001Y-58102381D01*
X148831762Y-58054000D01*
X148976905Y-58054000D01*
X149073667Y-58102381D01*
X149122048Y-58150762D01*
X149170429Y-58247524D01*
X149170429Y-58537810D01*
X149122048Y-58634572D01*
X149073667Y-58682953D01*
X148976905Y-58731334D01*
X148831762Y-58731334D01*
X150379953Y-58731334D02*
X150379953Y-58054000D01*
X150379953Y-58247524D02*
X150428334Y-58150762D01*
X150476715Y-58102381D01*
X150573477Y-58054000D01*
X150670239Y-58054000D01*
X151395953Y-58682953D02*
X151299191Y-58731334D01*
X151105667Y-58731334D01*
X151008905Y-58682953D01*
X150960524Y-58586191D01*
X150960524Y-58199143D01*
X151008905Y-58102381D01*
X151105667Y-58054000D01*
X151299191Y-58054000D01*
X151395953Y-58102381D01*
X151444334Y-58199143D01*
X151444334Y-58295905D01*
X150960524Y-58392667D01*
X151783001Y-58054000D02*
X152024905Y-58731334D01*
X152266810Y-58054000D01*
X153040905Y-58682953D02*
X152944143Y-58731334D01*
X152750620Y-58731334D01*
X152653858Y-58682953D01*
X152605477Y-58586191D01*
X152605477Y-58199143D01*
X152653858Y-58102381D01*
X152750620Y-58054000D01*
X152944143Y-58054000D01*
X153040905Y-58102381D01*
X153089286Y-58199143D01*
X153089286Y-58295905D01*
X152605477Y-58392667D01*
X153524715Y-58731334D02*
X153524715Y-58054000D01*
X153524715Y-58247524D02*
X153573096Y-58150762D01*
X153621477Y-58102381D01*
X153718239Y-58054000D01*
X153815001Y-58054000D01*
X154105286Y-58682953D02*
X154202048Y-58731334D01*
X154395572Y-58731334D01*
X154492334Y-58682953D01*
X154540715Y-58586191D01*
X154540715Y-58537810D01*
X154492334Y-58441048D01*
X154395572Y-58392667D01*
X154250429Y-58392667D01*
X154153667Y-58344286D01*
X154105286Y-58247524D01*
X154105286Y-58199143D01*
X154153667Y-58102381D01*
X154250429Y-58054000D01*
X154395572Y-58054000D01*
X154492334Y-58102381D01*
X155363191Y-58682953D02*
X155266429Y-58731334D01*
X155072905Y-58731334D01*
X154976143Y-58682953D01*
X154927762Y-58586191D01*
X154927762Y-58199143D01*
X154976143Y-58102381D01*
X155072905Y-58054000D01*
X155266429Y-58054000D01*
X155363191Y-58102381D01*
X155411572Y-58199143D01*
X155411572Y-58295905D01*
X154927762Y-58392667D01*
X155895382Y-58682953D02*
X155895382Y-58731334D01*
X155847001Y-58828095D01*
X155798620Y-58876476D01*
X157250048Y-58731334D02*
X157153286Y-58682953D01*
X157104905Y-58634572D01*
X157056524Y-58537810D01*
X157056524Y-58247524D01*
X157104905Y-58150762D01*
X157153286Y-58102381D01*
X157250048Y-58054000D01*
X157395191Y-58054000D01*
X157491953Y-58102381D01*
X157540334Y-58150762D01*
X157588715Y-58247524D01*
X157588715Y-58537810D01*
X157540334Y-58634572D01*
X157491953Y-58682953D01*
X157395191Y-58731334D01*
X157250048Y-58731334D01*
X157927382Y-58054000D02*
X158169286Y-58731334D01*
X158411191Y-58054000D01*
X159185286Y-58682953D02*
X159088524Y-58731334D01*
X158895001Y-58731334D01*
X158798239Y-58682953D01*
X158749858Y-58586191D01*
X158749858Y-58199143D01*
X158798239Y-58102381D01*
X158895001Y-58054000D01*
X159088524Y-58054000D01*
X159185286Y-58102381D01*
X159233667Y-58199143D01*
X159233667Y-58295905D01*
X158749858Y-58392667D01*
X159669096Y-58731334D02*
X159669096Y-58054000D01*
X159669096Y-58247524D02*
X159717477Y-58150762D01*
X159765858Y-58102381D01*
X159862620Y-58054000D01*
X159959382Y-58054000D01*
X160975382Y-58054000D02*
X161217286Y-58731334D01*
X161459191Y-58054000D01*
X161991382Y-58731334D02*
X161894620Y-58682953D01*
X161846239Y-58634572D01*
X161797858Y-58537810D01*
X161797858Y-58247524D01*
X161846239Y-58150762D01*
X161894620Y-58102381D01*
X161991382Y-58054000D01*
X162136524Y-58054000D01*
X162233286Y-58102381D01*
X162281667Y-58150762D01*
X162330048Y-58247524D01*
X162330048Y-58537810D01*
X162281667Y-58634572D01*
X162233286Y-58682953D01*
X162136524Y-58731334D01*
X161991382Y-58731334D01*
X162910620Y-58731334D02*
X162813858Y-58682953D01*
X162765477Y-58586191D01*
X162765477Y-57715334D01*
X163152524Y-58054000D02*
X163539572Y-58054000D01*
X163297667Y-57715334D02*
X163297667Y-58586191D01*
X163346048Y-58682953D01*
X163442810Y-58731334D01*
X163539572Y-58731334D01*
X164313667Y-58731334D02*
X164313667Y-58199143D01*
X164265286Y-58102381D01*
X164168524Y-58054000D01*
X163975001Y-58054000D01*
X163878239Y-58102381D01*
X164313667Y-58682953D02*
X164216905Y-58731334D01*
X163975001Y-58731334D01*
X163878239Y-58682953D01*
X163829858Y-58586191D01*
X163829858Y-58489429D01*
X163878239Y-58392667D01*
X163975001Y-58344286D01*
X164216905Y-58344286D01*
X164313667Y-58295905D01*
X165232905Y-58054000D02*
X165232905Y-58876476D01*
X165184524Y-58973238D01*
X165136143Y-59021619D01*
X165039382Y-59070000D01*
X164894239Y-59070000D01*
X164797477Y-59021619D01*
X165232905Y-58682953D02*
X165136143Y-58731334D01*
X164942620Y-58731334D01*
X164845858Y-58682953D01*
X164797477Y-58634572D01*
X164749096Y-58537810D01*
X164749096Y-58247524D01*
X164797477Y-58150762D01*
X164845858Y-58102381D01*
X164942620Y-58054000D01*
X165136143Y-58054000D01*
X165232905Y-58102381D01*
X166103762Y-58682953D02*
X166007001Y-58731334D01*
X165813477Y-58731334D01*
X165716715Y-58682953D01*
X165668334Y-58586191D01*
X165668334Y-58199143D01*
X165716715Y-58102381D01*
X165813477Y-58054000D01*
X166007001Y-58054000D01*
X166103762Y-58102381D01*
X166152143Y-58199143D01*
X166152143Y-58295905D01*
X165668334Y-58392667D01*
X167361667Y-58054000D02*
X167361667Y-59070000D01*
X167361667Y-58102381D02*
X167458429Y-58054000D01*
X167651953Y-58054000D01*
X167748715Y-58102381D01*
X167797096Y-58150762D01*
X167845477Y-58247524D01*
X167845477Y-58537810D01*
X167797096Y-58634572D01*
X167748715Y-58682953D01*
X167651953Y-58731334D01*
X167458429Y-58731334D01*
X167361667Y-58682953D01*
X168280905Y-58731334D02*
X168280905Y-58054000D01*
X168280905Y-58247524D02*
X168329286Y-58150762D01*
X168377667Y-58102381D01*
X168474429Y-58054000D01*
X168571191Y-58054000D01*
X169055001Y-58731334D02*
X168958239Y-58682953D01*
X168909858Y-58634572D01*
X168861477Y-58537810D01*
X168861477Y-58247524D01*
X168909858Y-58150762D01*
X168958239Y-58102381D01*
X169055001Y-58054000D01*
X169200143Y-58054000D01*
X169296905Y-58102381D01*
X169345286Y-58150762D01*
X169393667Y-58247524D01*
X169393667Y-58537810D01*
X169345286Y-58634572D01*
X169296905Y-58682953D01*
X169200143Y-58731334D01*
X169055001Y-58731334D01*
X169683953Y-58054000D02*
X170071001Y-58054000D01*
X169829096Y-57715334D02*
X169829096Y-58586191D01*
X169877477Y-58682953D01*
X169974239Y-58731334D01*
X170071001Y-58731334D01*
X170796715Y-58682953D02*
X170699953Y-58731334D01*
X170506429Y-58731334D01*
X170409667Y-58682953D01*
X170361286Y-58586191D01*
X170361286Y-58199143D01*
X170409667Y-58102381D01*
X170506429Y-58054000D01*
X170699953Y-58054000D01*
X170796715Y-58102381D01*
X170845096Y-58199143D01*
X170845096Y-58295905D01*
X170361286Y-58392667D01*
X171715953Y-58682953D02*
X171619191Y-58731334D01*
X171425667Y-58731334D01*
X171328905Y-58682953D01*
X171280524Y-58634572D01*
X171232143Y-58537810D01*
X171232143Y-58247524D01*
X171280524Y-58150762D01*
X171328905Y-58102381D01*
X171425667Y-58054000D01*
X171619191Y-58054000D01*
X171715953Y-58102381D01*
X172006239Y-58054000D02*
X172393286Y-58054000D01*
X172151382Y-57715334D02*
X172151382Y-58586191D01*
X172199762Y-58682953D01*
X172296524Y-58731334D01*
X172393286Y-58731334D01*
X172731953Y-58731334D02*
X172731953Y-58054000D01*
X172731953Y-57715334D02*
X172683572Y-57763715D01*
X172731953Y-57812095D01*
X172780334Y-57763715D01*
X172731953Y-57715334D01*
X172731953Y-57812095D01*
X173360905Y-58731334D02*
X173264143Y-58682953D01*
X173215762Y-58634572D01*
X173167382Y-58537810D01*
X173167382Y-58247524D01*
X173215762Y-58150762D01*
X173264143Y-58102381D01*
X173360905Y-58054000D01*
X173506048Y-58054000D01*
X173602810Y-58102381D01*
X173651191Y-58150762D01*
X173699572Y-58247524D01*
X173699572Y-58537810D01*
X173651191Y-58634572D01*
X173602810Y-58682953D01*
X173506048Y-58731334D01*
X173360905Y-58731334D01*
X174135001Y-58054000D02*
X174135001Y-58731334D01*
X174135001Y-58150762D02*
X174183382Y-58102381D01*
X174280143Y-58054000D01*
X174425286Y-58054000D01*
X174522048Y-58102381D01*
X174570429Y-58199143D01*
X174570429Y-58731334D01*
X153234429Y-60367094D02*
X152653858Y-60367094D01*
X152944143Y-60367094D02*
X152944143Y-59351094D01*
X152847382Y-59496236D01*
X152750620Y-59592998D01*
X152653858Y-59641379D01*
X153815001Y-59786522D02*
X153718239Y-59738141D01*
X153669858Y-59689760D01*
X153621477Y-59592998D01*
X153621477Y-59544617D01*
X153669858Y-59447855D01*
X153718239Y-59399475D01*
X153815001Y-59351094D01*
X154008524Y-59351094D01*
X154105286Y-59399475D01*
X154153667Y-59447855D01*
X154202048Y-59544617D01*
X154202048Y-59592998D01*
X154153667Y-59689760D01*
X154105286Y-59738141D01*
X154008524Y-59786522D01*
X153815001Y-59786522D01*
X153718239Y-59834903D01*
X153669858Y-59883284D01*
X153621477Y-59980046D01*
X153621477Y-60173570D01*
X153669858Y-60270332D01*
X153718239Y-60318713D01*
X153815001Y-60367094D01*
X154008524Y-60367094D01*
X154105286Y-60318713D01*
X154153667Y-60270332D01*
X154202048Y-60173570D01*
X154202048Y-59980046D01*
X154153667Y-59883284D01*
X154105286Y-59834903D01*
X154008524Y-59786522D01*
X155072905Y-59351094D02*
X154879382Y-59351094D01*
X154782620Y-59399475D01*
X154734239Y-59447855D01*
X154637477Y-59592998D01*
X154589096Y-59786522D01*
X154589096Y-60173570D01*
X154637477Y-60270332D01*
X154685858Y-60318713D01*
X154782620Y-60367094D01*
X154976143Y-60367094D01*
X155072905Y-60318713D01*
X155121286Y-60270332D01*
X155169667Y-60173570D01*
X155169667Y-59931665D01*
X155121286Y-59834903D01*
X155072905Y-59786522D01*
X154976143Y-59738141D01*
X154782620Y-59738141D01*
X154685858Y-59786522D01*
X154637477Y-59834903D01*
X154589096Y-59931665D01*
X156088905Y-59351094D02*
X155605096Y-59351094D01*
X155556715Y-59834903D01*
X155605096Y-59786522D01*
X155701858Y-59738141D01*
X155943762Y-59738141D01*
X156040524Y-59786522D01*
X156088905Y-59834903D01*
X156137286Y-59931665D01*
X156137286Y-60173570D01*
X156088905Y-60270332D01*
X156040524Y-60318713D01*
X155943762Y-60367094D01*
X155701858Y-60367094D01*
X155605096Y-60318713D01*
X155556715Y-60270332D01*
X156766239Y-59351094D02*
X156863001Y-59351094D01*
X156959762Y-59399475D01*
X157008143Y-59447855D01*
X157056524Y-59544617D01*
X157104905Y-59738141D01*
X157104905Y-59980046D01*
X157056524Y-60173570D01*
X157008143Y-60270332D01*
X156959762Y-60318713D01*
X156863001Y-60367094D01*
X156766239Y-60367094D01*
X156669477Y-60318713D01*
X156621096Y-60270332D01*
X156572715Y-60173570D01*
X156524334Y-59980046D01*
X156524334Y-59738141D01*
X156572715Y-59544617D01*
X156621096Y-59447855D01*
X156669477Y-59399475D01*
X156766239Y-59351094D01*
X158653096Y-59834903D02*
X158798239Y-59883284D01*
X158846620Y-59931665D01*
X158895001Y-60028427D01*
X158895001Y-60173570D01*
X158846620Y-60270332D01*
X158798239Y-60318713D01*
X158701477Y-60367094D01*
X158314429Y-60367094D01*
X158314429Y-59351094D01*
X158653096Y-59351094D01*
X158749858Y-59399475D01*
X158798239Y-59447855D01*
X158846620Y-59544617D01*
X158846620Y-59641379D01*
X158798239Y-59738141D01*
X158749858Y-59786522D01*
X158653096Y-59834903D01*
X158314429Y-59834903D01*
X159765858Y-60367094D02*
X159765858Y-59834903D01*
X159717477Y-59738141D01*
X159620715Y-59689760D01*
X159427191Y-59689760D01*
X159330429Y-59738141D01*
X159765858Y-60318713D02*
X159669096Y-60367094D01*
X159427191Y-60367094D01*
X159330429Y-60318713D01*
X159282048Y-60221951D01*
X159282048Y-60125189D01*
X159330429Y-60028427D01*
X159427191Y-59980046D01*
X159669096Y-59980046D01*
X159765858Y-59931665D01*
X160104524Y-59689760D02*
X160491572Y-59689760D01*
X160249667Y-59351094D02*
X160249667Y-60221951D01*
X160298048Y-60318713D01*
X160394810Y-60367094D01*
X160491572Y-60367094D01*
X160685096Y-59689760D02*
X161072143Y-59689760D01*
X160830239Y-59351094D02*
X160830239Y-60221951D01*
X160878620Y-60318713D01*
X160975382Y-60367094D01*
X161072143Y-60367094D01*
X161797858Y-60318713D02*
X161701096Y-60367094D01*
X161507572Y-60367094D01*
X161410810Y-60318713D01*
X161362429Y-60221951D01*
X161362429Y-59834903D01*
X161410810Y-59738141D01*
X161507572Y-59689760D01*
X161701096Y-59689760D01*
X161797858Y-59738141D01*
X161846239Y-59834903D01*
X161846239Y-59931665D01*
X161362429Y-60028427D01*
X162281667Y-60367094D02*
X162281667Y-59689760D01*
X162281667Y-59883284D02*
X162330048Y-59786522D01*
X162378429Y-59738141D01*
X162475191Y-59689760D01*
X162571953Y-59689760D01*
X162813858Y-59689760D02*
X163055762Y-60367094D01*
X163297667Y-59689760D02*
X163055762Y-60367094D01*
X162959001Y-60608998D01*
X162910620Y-60657379D01*
X162813858Y-60705760D01*
X164603953Y-60367094D02*
X164507191Y-60318713D01*
X164458810Y-60270332D01*
X164410429Y-60173570D01*
X164410429Y-59883284D01*
X164458810Y-59786522D01*
X164507191Y-59738141D01*
X164603953Y-59689760D01*
X164749096Y-59689760D01*
X164845858Y-59738141D01*
X164894239Y-59786522D01*
X164942620Y-59883284D01*
X164942620Y-60173570D01*
X164894239Y-60270332D01*
X164845858Y-60318713D01*
X164749096Y-60367094D01*
X164603953Y-60367094D01*
X165378048Y-60367094D02*
X165378048Y-59689760D01*
X165378048Y-59883284D02*
X165426429Y-59786522D01*
X165474810Y-59738141D01*
X165571572Y-59689760D01*
X165668334Y-59689760D01*
X167168143Y-60318713D02*
X167071382Y-60367094D01*
X166877858Y-60367094D01*
X166781096Y-60318713D01*
X166732715Y-60221951D01*
X166732715Y-59834903D01*
X166781096Y-59738141D01*
X166877858Y-59689760D01*
X167071382Y-59689760D01*
X167168143Y-59738141D01*
X167216524Y-59834903D01*
X167216524Y-59931665D01*
X166732715Y-60028427D01*
X168087382Y-59689760D02*
X168087382Y-60705760D01*
X168087382Y-60318713D02*
X167990620Y-60367094D01*
X167797096Y-60367094D01*
X167700334Y-60318713D01*
X167651953Y-60270332D01*
X167603572Y-60173570D01*
X167603572Y-59883284D01*
X167651953Y-59786522D01*
X167700334Y-59738141D01*
X167797096Y-59689760D01*
X167990620Y-59689760D01*
X168087382Y-59738141D01*
X169006620Y-59689760D02*
X169006620Y-60367094D01*
X168571191Y-59689760D02*
X168571191Y-60221951D01*
X168619572Y-60318713D01*
X168716334Y-60367094D01*
X168861477Y-60367094D01*
X168958239Y-60318713D01*
X169006620Y-60270332D01*
X169490429Y-60367094D02*
X169490429Y-59689760D01*
X169490429Y-59351094D02*
X169442048Y-59399475D01*
X169490429Y-59447855D01*
X169538810Y-59399475D01*
X169490429Y-59351094D01*
X169490429Y-59447855D01*
X169877477Y-59689760D02*
X170119382Y-60367094D01*
X170361286Y-59689760D01*
X155895382Y-62002854D02*
X155895382Y-60986854D01*
X156475953Y-62002854D01*
X156475953Y-60986854D01*
X157104905Y-62002854D02*
X157008143Y-61954473D01*
X156959762Y-61906092D01*
X156911382Y-61809330D01*
X156911382Y-61519044D01*
X156959762Y-61422282D01*
X157008143Y-61373901D01*
X157104905Y-61325520D01*
X157250048Y-61325520D01*
X157346810Y-61373901D01*
X157395191Y-61422282D01*
X157443572Y-61519044D01*
X157443572Y-61809330D01*
X157395191Y-61906092D01*
X157346810Y-61954473D01*
X157250048Y-62002854D01*
X157104905Y-62002854D01*
X158314429Y-62002854D02*
X158314429Y-60986854D01*
X158314429Y-61954473D02*
X158217667Y-62002854D01*
X158024143Y-62002854D01*
X157927382Y-61954473D01*
X157879001Y-61906092D01*
X157830620Y-61809330D01*
X157830620Y-61519044D01*
X157879001Y-61422282D01*
X157927382Y-61373901D01*
X158024143Y-61325520D01*
X158217667Y-61325520D01*
X158314429Y-61373901D01*
X159185286Y-61954473D02*
X159088524Y-62002854D01*
X158895001Y-62002854D01*
X158798239Y-61954473D01*
X158749858Y-61857711D01*
X158749858Y-61470663D01*
X158798239Y-61373901D01*
X158895001Y-61325520D01*
X159088524Y-61325520D01*
X159185286Y-61373901D01*
X159233667Y-61470663D01*
X159233667Y-61567425D01*
X158749858Y-61664187D01*
X159669096Y-62002854D02*
X159669096Y-60986854D01*
X160007762Y-61712568D01*
X160346429Y-60986854D01*
X160346429Y-62002854D01*
X161410810Y-61906092D02*
X161362429Y-61954473D01*
X161217286Y-62002854D01*
X161120524Y-62002854D01*
X160975382Y-61954473D01*
X160878620Y-61857711D01*
X160830239Y-61760949D01*
X160781858Y-61567425D01*
X160781858Y-61422282D01*
X160830239Y-61228758D01*
X160878620Y-61131996D01*
X160975382Y-61035235D01*
X161120524Y-60986854D01*
X161217286Y-60986854D01*
X161362429Y-61035235D01*
X161410810Y-61083615D01*
X161846239Y-60986854D02*
X161846239Y-61809330D01*
X161894620Y-61906092D01*
X161943001Y-61954473D01*
X162039762Y-62002854D01*
X162233286Y-62002854D01*
X162330048Y-61954473D01*
X162378429Y-61906092D01*
X162426810Y-61809330D01*
X162426810Y-60986854D01*
X163829858Y-61422282D02*
X163733096Y-61373901D01*
X163684715Y-61325520D01*
X163636334Y-61228758D01*
X163636334Y-61180377D01*
X163684715Y-61083615D01*
X163733096Y-61035235D01*
X163829858Y-60986854D01*
X164023382Y-60986854D01*
X164120143Y-61035235D01*
X164168524Y-61083615D01*
X164216905Y-61180377D01*
X164216905Y-61228758D01*
X164168524Y-61325520D01*
X164120143Y-61373901D01*
X164023382Y-61422282D01*
X163829858Y-61422282D01*
X163733096Y-61470663D01*
X163684715Y-61519044D01*
X163636334Y-61615806D01*
X163636334Y-61809330D01*
X163684715Y-61906092D01*
X163733096Y-61954473D01*
X163829858Y-62002854D01*
X164023382Y-62002854D01*
X164120143Y-61954473D01*
X164168524Y-61906092D01*
X164216905Y-61809330D01*
X164216905Y-61615806D01*
X164168524Y-61519044D01*
X164120143Y-61470663D01*
X164023382Y-61422282D01*
X164603953Y-61083615D02*
X164652334Y-61035235D01*
X164749096Y-60986854D01*
X164991001Y-60986854D01*
X165087762Y-61035235D01*
X165136143Y-61083615D01*
X165184524Y-61180377D01*
X165184524Y-61277139D01*
X165136143Y-61422282D01*
X164555572Y-62002854D01*
X165184524Y-62002854D01*
X166055382Y-60986854D02*
X165861858Y-60986854D01*
X165765096Y-61035235D01*
X165716715Y-61083615D01*
X165619953Y-61228758D01*
X165571572Y-61422282D01*
X165571572Y-61809330D01*
X165619953Y-61906092D01*
X165668334Y-61954473D01*
X165765096Y-62002854D01*
X165958620Y-62002854D01*
X166055382Y-61954473D01*
X166103762Y-61906092D01*
X166152143Y-61809330D01*
X166152143Y-61567425D01*
X166103762Y-61470663D01*
X166055382Y-61422282D01*
X165958620Y-61373901D01*
X165765096Y-61373901D01*
X165668334Y-61422282D01*
X165619953Y-61470663D01*
X165571572Y-61567425D01*
X167023001Y-60986854D02*
X166829477Y-60986854D01*
X166732715Y-61035235D01*
X166684334Y-61083615D01*
X166587572Y-61228758D01*
X166539191Y-61422282D01*
X166539191Y-61809330D01*
X166587572Y-61906092D01*
X166635953Y-61954473D01*
X166732715Y-62002854D01*
X166926239Y-62002854D01*
X167023001Y-61954473D01*
X167071382Y-61906092D01*
X167119762Y-61809330D01*
X167119762Y-61567425D01*
X167071382Y-61470663D01*
X167023001Y-61422282D01*
X166926239Y-61373901D01*
X166732715Y-61373901D01*
X166635953Y-61422282D01*
X166587572Y-61470663D01*
X166539191Y-61567425D01*
D11*
X137049064Y-116487278D02*
X137382397Y-117487278D01*
X137715730Y-116487278D01*
X138049064Y-117487278D02*
X138049064Y-116487278D01*
X138525254Y-117487278D02*
X138525254Y-116487278D01*
X139096683Y-117487278D01*
X139096683Y-116487278D01*
X139572873Y-117106326D02*
X140334778Y-117106326D01*
X139953826Y-117487278D02*
X139953826Y-116725374D01*
X132510746Y-51779804D02*
X132415508Y-51732184D01*
X132272651Y-51732184D01*
X132129793Y-51779804D01*
X132034555Y-51875042D01*
X131986936Y-51970280D01*
X131939317Y-52160756D01*
X131939317Y-52303613D01*
X131986936Y-52494089D01*
X132034555Y-52589327D01*
X132129793Y-52684565D01*
X132272651Y-52732184D01*
X132367889Y-52732184D01*
X132510746Y-52684565D01*
X132558365Y-52636946D01*
X132558365Y-52303613D01*
X132367889Y-52303613D01*
X132986936Y-52732184D02*
X132986936Y-51732184D01*
X133558365Y-52732184D01*
X133558365Y-51732184D01*
X134034555Y-52732184D02*
X134034555Y-51732184D01*
X134272651Y-51732184D01*
X134415508Y-51779804D01*
X134510746Y-51875042D01*
X134558365Y-51970280D01*
X134605984Y-52160756D01*
X134605984Y-52303613D01*
X134558365Y-52494089D01*
X134510746Y-52589327D01*
X134415508Y-52684565D01*
X134272651Y-52732184D01*
X134034555Y-52732184D01*
X140207067Y-59255657D02*
X140111829Y-59208037D01*
X139968972Y-59208037D01*
X139826114Y-59255657D01*
X139730876Y-59350895D01*
X139683257Y-59446133D01*
X139635638Y-59636609D01*
X139635638Y-59779466D01*
X139683257Y-59969942D01*
X139730876Y-60065180D01*
X139826114Y-60160418D01*
X139968972Y-60208037D01*
X140064210Y-60208037D01*
X140207067Y-60160418D01*
X140254686Y-60112799D01*
X140254686Y-59779466D01*
X140064210Y-59779466D01*
X140683257Y-60208037D02*
X140683257Y-59208037D01*
X141254686Y-60208037D01*
X141254686Y-59208037D01*
X141730876Y-60208037D02*
X141730876Y-59208037D01*
X141968972Y-59208037D01*
X142111829Y-59255657D01*
X142207067Y-59350895D01*
X142254686Y-59446133D01*
X142302305Y-59636609D01*
X142302305Y-59779466D01*
X142254686Y-59969942D01*
X142207067Y-60065180D01*
X142111829Y-60160418D01*
X141968972Y-60208037D01*
X141730876Y-60208037D01*
X132350406Y-58574212D02*
X132255168Y-58526592D01*
X132112311Y-58526592D01*
X131969453Y-58574212D01*
X131874215Y-58669450D01*
X131826596Y-58764688D01*
X131778977Y-58955164D01*
X131778977Y-59098021D01*
X131826596Y-59288497D01*
X131874215Y-59383735D01*
X131969453Y-59478973D01*
X132112311Y-59526592D01*
X132207549Y-59526592D01*
X132350406Y-59478973D01*
X132398025Y-59431354D01*
X132398025Y-59098021D01*
X132207549Y-59098021D01*
X132826596Y-59526592D02*
X132826596Y-58526592D01*
X133398025Y-59526592D01*
X133398025Y-58526592D01*
X133874215Y-59526592D02*
X133874215Y-58526592D01*
X134112311Y-58526592D01*
X134255168Y-58574212D01*
X134350406Y-58669450D01*
X134398025Y-58764688D01*
X134445644Y-58955164D01*
X134445644Y-59098021D01*
X134398025Y-59288497D01*
X134350406Y-59383735D01*
X134255168Y-59478973D01*
X134112311Y-59526592D01*
X133874215Y-59526592D01*
X129283904Y-64707218D02*
X129188666Y-64659598D01*
X129045809Y-64659598D01*
X128902951Y-64707218D01*
X128807713Y-64802456D01*
X128760094Y-64897694D01*
X128712475Y-65088170D01*
X128712475Y-65231027D01*
X128760094Y-65421503D01*
X128807713Y-65516741D01*
X128902951Y-65611979D01*
X129045809Y-65659598D01*
X129141047Y-65659598D01*
X129283904Y-65611979D01*
X129331523Y-65564360D01*
X129331523Y-65231027D01*
X129141047Y-65231027D01*
X129760094Y-65659598D02*
X129760094Y-64659598D01*
X130331523Y-65659598D01*
X130331523Y-64659598D01*
X130807713Y-65659598D02*
X130807713Y-64659598D01*
X131045809Y-64659598D01*
X131188666Y-64707218D01*
X131283904Y-64802456D01*
X131331523Y-64897694D01*
X131379142Y-65088170D01*
X131379142Y-65231027D01*
X131331523Y-65421503D01*
X131283904Y-65516741D01*
X131188666Y-65611979D01*
X131045809Y-65659598D01*
X130807713Y-65659598D01*
X129252455Y-126789048D02*
X129585788Y-127789048D01*
X129919121Y-126789048D01*
X130252455Y-127789048D02*
X130252455Y-126789048D01*
X130728645Y-127789048D02*
X130728645Y-126789048D01*
X131300074Y-127789048D01*
X131300074Y-126789048D01*
X131776264Y-127408096D02*
X132538169Y-127408096D01*
X132157217Y-127789048D02*
X132157217Y-127027144D01*
X132450961Y-134796609D02*
X132784294Y-135796609D01*
X133117627Y-134796609D01*
X133450961Y-135796609D02*
X133450961Y-134796609D01*
X133927151Y-135796609D02*
X133927151Y-134796609D01*
X134498580Y-135796609D01*
X134498580Y-134796609D01*
X134974770Y-135415657D02*
X135736675Y-135415657D01*
X135355723Y-135796609D02*
X135355723Y-135034705D01*
X150553377Y-128010877D02*
X150458139Y-127963257D01*
X150315282Y-127963257D01*
X150172424Y-128010877D01*
X150077186Y-128106115D01*
X150029567Y-128201353D01*
X149981948Y-128391829D01*
X149981948Y-128534686D01*
X150029567Y-128725162D01*
X150077186Y-128820400D01*
X150172424Y-128915638D01*
X150315282Y-128963257D01*
X150410520Y-128963257D01*
X150553377Y-128915638D01*
X150600996Y-128868019D01*
X150600996Y-128534686D01*
X150410520Y-128534686D01*
X151029567Y-128963257D02*
X151029567Y-127963257D01*
X151600996Y-128963257D01*
X151600996Y-127963257D01*
X152077186Y-128963257D02*
X152077186Y-127963257D01*
X152315282Y-127963257D01*
X152458139Y-128010877D01*
X152553377Y-128106115D01*
X152600996Y-128201353D01*
X152648615Y-128391829D01*
X152648615Y-128534686D01*
X152600996Y-128725162D01*
X152553377Y-128820400D01*
X152458139Y-128915638D01*
X152315282Y-128963257D01*
X152077186Y-128963257D01*
X150099788Y-130668995D02*
X150433122Y-131668995D01*
X150766455Y-130668995D01*
X151099788Y-131668995D02*
X151099788Y-130668995D01*
X151575979Y-131668995D02*
X151575979Y-130668995D01*
X152147407Y-131668995D01*
X152147407Y-130668995D01*
X147780951Y-88023519D02*
X148257141Y-88023519D01*
X147685713Y-88309233D02*
X148019046Y-87309233D01*
X148352379Y-88309233D01*
X148876189Y-87309233D02*
X148971427Y-87309233D01*
X149066665Y-87356853D01*
X149114284Y-87404472D01*
X149161903Y-87499710D01*
X149209522Y-87690186D01*
X149209522Y-87928281D01*
X149161903Y-88118757D01*
X149114284Y-88213995D01*
X149066665Y-88261614D01*
X148971427Y-88309233D01*
X148876189Y-88309233D01*
X148780951Y-88261614D01*
X148733332Y-88213995D01*
X148685713Y-88118757D01*
X148638094Y-87928281D01*
X148638094Y-87690186D01*
X148685713Y-87499710D01*
X148733332Y-87404472D01*
X148780951Y-87356853D01*
X148876189Y-87309233D01*
%TO.C,J2*%
X174575835Y-84965918D02*
X174575835Y-85680204D01*
X174528216Y-85823061D01*
X174432978Y-85918299D01*
X174290121Y-85965918D01*
X174194883Y-85965918D01*
X175004407Y-85061157D02*
X175052026Y-85013538D01*
X175147264Y-84965918D01*
X175385359Y-84965918D01*
X175480597Y-85013538D01*
X175528216Y-85061157D01*
X175575835Y-85156395D01*
X175575835Y-85251633D01*
X175528216Y-85394490D01*
X174956788Y-85965918D01*
X175575835Y-85965918D01*
%TO.C,R2*%
X163836736Y-83644573D02*
X163503403Y-83168383D01*
X163265307Y-83644573D02*
X163265307Y-82644573D01*
X163646260Y-82644573D01*
X163741498Y-82692193D01*
X163789117Y-82739812D01*
X163836736Y-82835050D01*
X163836736Y-82977907D01*
X163789117Y-83073145D01*
X163741498Y-83120764D01*
X163646260Y-83168383D01*
X163265307Y-83168383D01*
X164217688Y-82739812D02*
X164265307Y-82692193D01*
X164360545Y-82644573D01*
X164598641Y-82644573D01*
X164693879Y-82692193D01*
X164741498Y-82739812D01*
X164789117Y-82835050D01*
X164789117Y-82930288D01*
X164741498Y-83073145D01*
X164170069Y-83644573D01*
X164789117Y-83644573D01*
%TO.C,R1*%
X157714220Y-78968784D02*
X157380887Y-78492594D01*
X157142791Y-78968784D02*
X157142791Y-77968784D01*
X157523744Y-77968784D01*
X157618982Y-78016404D01*
X157666601Y-78064023D01*
X157714220Y-78159261D01*
X157714220Y-78302118D01*
X157666601Y-78397356D01*
X157618982Y-78444975D01*
X157523744Y-78492594D01*
X157142791Y-78492594D01*
X158666601Y-78968784D02*
X158095172Y-78968784D01*
X158380887Y-78968784D02*
X158380887Y-77968784D01*
X158285648Y-78111642D01*
X158190410Y-78206880D01*
X158095172Y-78254499D01*
%TO.C,J3*%
X160355805Y-75876694D02*
X160355805Y-76590980D01*
X160308186Y-76733837D01*
X160212948Y-76829075D01*
X160070091Y-76876694D01*
X159974853Y-76876694D01*
X160736758Y-75876694D02*
X161355805Y-75876694D01*
X161022472Y-76257647D01*
X161165329Y-76257647D01*
X161260567Y-76305266D01*
X161308186Y-76352885D01*
X161355805Y-76448123D01*
X161355805Y-76686218D01*
X161308186Y-76781456D01*
X161260567Y-76829075D01*
X161165329Y-76876694D01*
X160879615Y-76876694D01*
X160784377Y-76829075D01*
X160736758Y-76781456D01*
%TO.C,J1*%
X151080835Y-84965918D02*
X151080835Y-85680204D01*
X151033216Y-85823061D01*
X150937978Y-85918299D01*
X150795121Y-85965918D01*
X150699883Y-85965918D01*
X152080835Y-85965918D02*
X151509407Y-85965918D01*
X151795121Y-85965918D02*
X151795121Y-84965918D01*
X151699883Y-85108776D01*
X151604645Y-85204014D01*
X151509407Y-85251633D01*
D10*
%TO.C,U1*%
X132715467Y-94638838D02*
X133743563Y-94638838D01*
X133864515Y-94578361D01*
X133924991Y-94517885D01*
X133985467Y-94396933D01*
X133985467Y-94155028D01*
X133924991Y-94034076D01*
X133864515Y-93973599D01*
X133743563Y-93913123D01*
X132715467Y-93913123D01*
X133985467Y-92643123D02*
X133985467Y-93368838D01*
X133985467Y-93005980D02*
X132715467Y-93005980D01*
X132896896Y-93126933D01*
X133017848Y-93247885D01*
X133078324Y-93368838D01*
D12*
%TO.C,J2*%
X173579169Y-89113538D02*
X173579169Y-124733538D01*
X176239169Y-89113538D02*
X176239169Y-124733538D01*
X173579169Y-87843538D02*
X173579169Y-86513538D01*
X173579169Y-124733538D02*
X176239169Y-124733538D01*
X173579169Y-89113538D02*
X176239169Y-89113538D01*
X173579169Y-86513538D02*
X174909169Y-86513538D01*
%TO.C,R2*%
X163903403Y-80822193D02*
X163833403Y-80822193D01*
X166643403Y-80822193D02*
G75*
G03*
X166643403Y-80822193I-1370000J0D01*
G01*
%TO.C,R1*%
X157980887Y-80886404D02*
X158050887Y-80886404D01*
X157980887Y-80886404D02*
G75*
G03*
X157980887Y-80886404I-1370000J0D01*
G01*
%TO.C,J3*%
X155549139Y-75425314D02*
X155549139Y-65504314D01*
X156874139Y-71233314D02*
X156921139Y-71187314D01*
X159183139Y-68925314D02*
X159218139Y-68890314D01*
X165829139Y-66064314D02*
X155549139Y-66064314D01*
X165829139Y-67564314D02*
X155549139Y-67564314D01*
X165829139Y-72465314D02*
X155549139Y-72465314D01*
X157079139Y-71439314D02*
X157114139Y-71403314D01*
X165829139Y-75425314D02*
X165829139Y-65504314D01*
X165829139Y-65504314D02*
X155549139Y-65504314D01*
X166069139Y-65264314D02*
X165569139Y-65264314D01*
X165829139Y-75425314D02*
X155549139Y-75425314D01*
X159376139Y-69141314D02*
X159423139Y-69095314D01*
X166069139Y-66004314D02*
X166069139Y-65264314D01*
X163913139Y-68629314D02*
G75*
G03*
X163200334Y-68484061I-683999J-1535001D01*
G01*
X163229139Y-68484314D02*
G75*
G03*
X162545821Y-68629558I-1J-1679992D01*
G01*
X164764139Y-70848314D02*
G75*
G03*
X164764566Y-69481272I-1534993J684001D01*
G01*
X161694139Y-69480314D02*
G75*
G03*
X161693712Y-70847356I1534993J-684001D01*
G01*
X162545139Y-71699314D02*
G75*
G03*
X163912181Y-71699741I684001J1534993D01*
G01*
X159829139Y-70164314D02*
G75*
G03*
X159829139Y-70164314I-1680000J0D01*
G01*
%TO.C,J1*%
X152744169Y-89113538D02*
X152744169Y-124733538D01*
X150084169Y-86513538D02*
X151414169Y-86513538D01*
X150084169Y-89113538D02*
X150084169Y-124733538D01*
X150084169Y-89113538D02*
X152744169Y-89113538D01*
X150084169Y-87843538D02*
X150084169Y-86513538D01*
X150084169Y-124733538D02*
X152744169Y-124733538D01*
D13*
%TO.C,U1*%
X123085944Y-131509219D02*
X143735944Y-131509219D01*
X143735944Y-54459219D02*
X143735944Y-118624219D01*
X123085944Y-54459219D02*
X123085944Y-54459219D01*
X143735944Y-54459219D02*
X123085944Y-54459219D01*
D14*
X133660944Y-132784219D02*
X133660944Y-132784219D01*
D13*
X143735944Y-131509219D02*
X123085944Y-131509219D01*
X143735944Y-54459219D02*
X143735944Y-54459219D01*
X143735944Y-131509219D02*
X143735944Y-122374219D01*
D14*
X133660944Y-132884219D02*
X133660944Y-132884219D01*
D13*
X123085944Y-63374219D02*
X123085944Y-63374219D01*
X123085944Y-67124219D02*
X123085944Y-131509219D01*
X123085944Y-131509219D02*
X123085944Y-67124219D01*
X123085944Y-131509219D02*
X123085944Y-131509219D01*
X123085944Y-63374219D02*
X123085944Y-54459219D01*
X143735944Y-118624219D02*
X143735944Y-54459219D01*
X143735944Y-118624219D02*
X143735944Y-118624219D01*
X143735944Y-131509219D02*
X143735944Y-131509219D01*
X143735944Y-122374219D02*
X143735944Y-122374219D01*
X123085944Y-67124219D02*
X123085944Y-67124219D01*
X143735944Y-131509219D02*
X143735944Y-131509219D01*
X123085944Y-54459219D02*
X123085944Y-63374219D01*
X123085944Y-54459219D02*
X143735944Y-54459219D01*
D14*
X133660944Y-132884219D02*
X133660944Y-132884219D01*
D13*
X143735944Y-122374219D02*
X143735944Y-131509219D01*
X143735944Y-54459219D02*
X143735944Y-54459219D01*
X123085944Y-131509219D02*
X123085944Y-131509219D01*
X123085944Y-54459219D02*
X123085944Y-54459219D01*
D14*
X133660944Y-132784219D02*
G75*
G03*
X133660944Y-132884219I0J-50000D01*
G01*
X133660944Y-132884219D02*
G75*
G03*
X133660944Y-132784219I0J50000D01*
G01*
X133660944Y-132884219D02*
G75*
G03*
X133660944Y-132784219I0J50000D01*
G01*
%TD*%
M02*
